<?xml version="1.0" encoding="UTF-8" standalone="no"?>
<!-- Created with Inkscape (http://www.inkscape.org/) -->

<svg
   xmlns:dc="http://purl.org/dc/elements/1.1/"
   xmlns:cc="http://creativecommons.org/ns#"
   xmlns:rdf="http://www.w3.org/1999/02/22-rdf-syntax-ns#"
   xmlns:svg="http://www.w3.org/2000/svg"
   xmlns="http://www.w3.org/2000/svg"
   xmlns:sodipodi="http://sodipodi.sourceforge.net/DTD/sodipodi-0.dtd"
   xmlns:inkscape="http://www.inkscape.org/namespaces/inkscape"
   width="916.70099"
   height="582.53101"
   viewBox="0 0 916.701 582.53102"
   id="svg4354"
   version="1.1"
   inkscape:version="0.91 r"
   sodipodi:docname="VectorVeggies.svg">
  <defs
     id="defs4356">
    <clipPath
       clipPathUnits="userSpaceOnUse"
       id="clipPath4884">
      <path
         style="fill:none;fill-rule:evenodd;stroke:#000000;stroke-width:0.73583579px;stroke-linecap:butt;stroke-linejoin:miter;stroke-opacity:1"
         d="m 59.959132,312.99296 27.85664,0 c 0,0 3.679179,-22.60066 12.08873,-24.70306 8.409548,-2.10238 9.460748,11.03754 15.767908,3.67918 6.30717,-7.35836 9.98634,-22.60066 16.29351,-14.71671 6.30716,7.88395 12.08873,12.08873 17.3447,3.67917 5.25597,-8.40955 19.97268,-26.80544 24.17746,-19.97268 4.20478,6.83276 6.83276,17.8703 9.98634,19.97268 3.15358,2.1024 9.46075,-15.2423 13.13993,-9.46074 3.67917,5.78157 7.88395,15.76791 7.88395,15.76791 L 210.80547,275.67558 221.843,247.81893 174.01368,180.54252 73.099057,202.092 Z"
         id="path4886"
         inkscape:connector-curvature="0" />
    </clipPath>
  </defs>
  <sodipodi:namedview
     id="base"
     pagecolor="#ffffff"
     bordercolor="#666666"
     borderopacity="1.0"
     inkscape:pageopacity="0.0"
     inkscape:pageshadow="2"
     inkscape:zoom="0.35"
     inkscape:cx="210.71429"
     inkscape:cy="177.14286"
     inkscape:document-units="px"
     inkscape:current-layer="layer1"
     showgrid="false"
     units="px"
     inkscape:window-width="1366"
     inkscape:window-height="702"
     inkscape:window-x="0"
     inkscape:window-y="27"
     inkscape:window-maximized="1" />
  <metadata
     id="metadata4359">
    <rdf:RDF>
      <cc:Work
         rdf:about="">
        <dc:format>image/svg+xml</dc:format>
        <dc:type
           rdf:resource="http://purl.org/dc/dcmitype/StillImage" />
        <dc:title></dc:title>
      </cc:Work>
    </rdf:RDF>
  </metadata>
  <g
     inkscape:label="Layer 1"
     inkscape:groupmode="layer"
     id="layer1"
     transform="translate(0,-469.83116)">
    <rect
       inkscape:export-ydpi="90"
       inkscape:export-xdpi="90"
       ry="1.2004642"
       y="472.52545"
       x="1.6494973"
       height="582.53064"
       width="916.70117"
       id="rect4246"
       style="fill:#ffffff;stroke:none" />
    <path
       style="fill:#ff6600;fill-rule:evenodd;stroke:none;stroke-width:1px;stroke-linecap:butt;stroke-linejoin:miter;stroke-opacity:1"
       d="m 566.07627,551.74945 c -14.2756,16.53936 -7.33562,40.68033 4.86246,61.87646 -8.7632,21.31312 -12.58125,39.34051 4.34312,65.88174 -4.77938,13.28153 -5.67482,22.79794 11.06217,32.14026 12.40231,-9.67651 13.89085,-16.11425 6.10161,-31.09364 16.83192,-24.7075 14.46035,-36.78593 6.88662,-64.74095 15.91698,-19.4488 20.04976,-44.63636 8.87509,-64.113 -9.94673,-5.09815 -24.42012,-8.97049 -42.13107,0.0491 z"
       id="path4250"
       inkscape:connector-curvature="0"
       sodipodi:nodetypes="cccccccc" />
    <path
       sodipodi:nodetypes="ccscscscccccc"
       inkscape:connector-curvature="0"
       id="path4252"
       d="m 606.39363,551.7297 -0.0587,0.39225 c 0,0 8.65198,20.70057 5.93473,31.06597 -6.12163,23.35211 -16.97936,31.4327 -16.97936,31.4327 0,0 8.69883,10.32663 7.81752,35.48774 -0.58813,16.79072 -13.20128,30.38349 -13.20128,30.38349 0,0 8.11945,11.36804 4.77519,20.36815 -1.46203,3.93461 -4.44832,5.96448 -8.2368,10.84848 12.4023,-9.67652 13.89056,-16.11503 6.10132,-31.09443 16.83193,-24.70749 14.45932,-36.78591 6.88558,-64.74093 15.91699,-19.44879 20.0503,-44.63585 8.87563,-64.11248 l -1.91384,-0.0309 z"
       style="fill:#d45500;fill-rule:evenodd;stroke:none;stroke-width:1px;stroke-linecap:butt;stroke-linejoin:miter;stroke-opacity:1" />
    <path
       sodipodi:nodetypes="ccccc"
       inkscape:connector-curvature="0"
       id="path4254"
       d="m 568.02618,553.72646 c 12.22725,-4.54586 24.31882,-5.00586 36.26002,0.12405 0,0 7.63347,10.83787 3.3116,32.35819 -6.87243,29.3309 -32.80988,38.35249 -45.44947,1.18765 -5.15062,-16.00704 5.87785,-33.66989 5.87785,-33.66989 z"
       style="fill:#ff7f2a;fill-rule:evenodd;stroke:none;stroke-width:1px;stroke-linecap:butt;stroke-linejoin:miter;stroke-opacity:1" />
    <path
       sodipodi:nodetypes="cccc"
       inkscape:connector-curvature="0"
       id="path4256"
       d="m 577.29315,616.06917 c -16.63365,12.26616 -14.39802,49.52727 6.80818,61.68222 16.89188,-11.23838 24.53389,-45.17302 5.09164,-61.17156 z"
       style="fill:#ff7f2a;fill-rule:evenodd;stroke:none;stroke-width:1px;stroke-linecap:butt;stroke-linejoin:miter;stroke-opacity:1" />
    <path
       sodipodi:nodetypes="cccc"
       inkscape:connector-curvature="0"
       id="path4258"
       d="m 578.82116,682.96494 c -8.70724,9.36832 -1.60181,21.02107 6.46047,25.07993 7.41221,-4.18576 11.20229,-15.81606 2.86401,-25.22791 z"
       style="fill:#ff7f2a;fill-rule:evenodd;stroke:none;stroke-width:1px;stroke-linecap:butt;stroke-linejoin:miter;stroke-opacity:1" />
    <path
       style="fill:#ff9955;fill-rule:evenodd;stroke:none;stroke-width:1px;stroke-linecap:butt;stroke-linejoin:miter;stroke-opacity:1"
       d="m 572.95797,561.99566 c 7.73128,-7.6092 15.94874,-10.80458 25.7214,0.11842 0,0 5.41793,7.69231 2.35043,22.96659 -4.87779,20.81796 -23.2872,27.22113 -32.25829,0.84295 -3.65571,-11.36119 4.18646,-23.92796 4.18646,-23.92796 z"
       id="path4260"
       inkscape:connector-curvature="0"
       sodipodi:nodetypes="ccccc" />
    <path
       style="fill:#ffb380;fill-rule:evenodd;stroke:none;stroke-width:1px;stroke-linecap:butt;stroke-linejoin:miter;stroke-opacity:1"
       d="m 578.82263,623.58816 c -12.57242,9.27129 -10.88264,37.43484 5.14592,46.62209 12.7676,-8.49447 18.54377,-34.14373 3.84848,-46.23611 z"
       id="path4262"
       inkscape:connector-curvature="0"
       sodipodi:nodetypes="cccc" />
    <path
       style="fill:#ff9955;fill-rule:evenodd;stroke:none;stroke-width:1px;stroke-linecap:butt;stroke-linejoin:miter;stroke-opacity:1"
       d="m 580.88403,688.06197 c -5.15984,5.55159 -0.94921,12.45692 3.82843,14.86217 4.39243,-2.48045 6.6384,-9.37248 1.6972,-14.94987 z"
       id="path4264"
       inkscape:connector-curvature="0"
       sodipodi:nodetypes="cccc" />
    <path
       sodipodi:nodetypes="cscsccsccscsccscccscccscccscc"
       inkscape:connector-curvature="0"
       id="path4266"
       d="m 569.75108,547.37472 c -2.05845,-1.9743 -2.91152,-4.64795 -1.33426,-5.72421 1.57738,-1.07635 5.79856,1.20057 5.79856,1.20057 0,0 -2.43546,-2.34631 -1.20521,-3.65084 1.23023,-1.30453 5.10923,-2.85693 6.24506,-0.99201 1.13581,1.86512 1.03146,3.53677 1.03146,3.53677 0,0 0.67979,-6.14085 3.8841,-5.15362 3.20434,0.98721 5.26771,3.71049 4.18134,4.98524 -1.08633,1.27475 1.00694,-0.20829 1.00694,-0.20829 0,0 2.88705,-3.44734 4.79674,-2.19231 1.90966,1.25502 1.67143,4.45447 1.67143,4.45447 0,0 3.93377,-6.36396 7.1728,-4.4839 3.23901,1.8801 3.36788,3.9535 2.82716,4.96538 4.47623,2.116 2.62436,5.42283 -0.1289,2.27674 0,0 0.83796,4.77685 -1.72641,4.70729 -2.56446,-0.0695 -3.75487,-1.47335 -3.75487,-1.47335 0,0 0.5754,4.23113 -2.28188,3.47215 -2.8571,-0.75905 -4.19138,-2.1331 -4.19138,-2.1331 0,0 -0.70952,5.99701 -3.22932,3.96813 -2.51974,-2.02883 -2.81732,-3.46733 -2.81732,-3.46733 0,0 -3.07556,5.43638 -4.24118,3.42742 -1.16557,-2.00899 -0.97195,-3.24909 -0.97195,-3.24909 0,0 -1.67182,4.24598 -3.98819,2.47507 -2.31639,-1.77094 -2.93144,-3.29377 -2.93144,-3.29377 0,0 -1.32948,3.72516 -3.58638,2.24197 -2.25687,-1.48323 -1.45823,-2.69848 -1.45823,-2.69848 0,0 -5.28373,3.66781 -6.45335,-0.0151 -1.30815,-4.11856 5.6846,-2.97595 5.6846,-2.97595 z"
       style="fill:#71c837;fill-rule:evenodd;stroke:none;stroke-width:1px;stroke-linecap:butt;stroke-linejoin:miter;stroke-opacity:1" />
    <path
       sodipodi:nodetypes="cccccccc"
       inkscape:connector-curvature="0"
       id="path4270"
       d="m 245.47177,779.72021 c -17.78809,20.60884 -9.14054,50.68968 6.05887,77.10109 -10.91939,26.55719 -15.67686,49.02021 5.41173,82.09188 -5.95534,16.54943 -7.0711,28.40735 13.78401,40.04834 15.45389,-12.05741 17.30868,-20.07914 7.60291,-38.7442 20.97339,-30.78675 18.0183,-45.83707 8.58106,-80.6704 19.83334,-24.23415 24.98298,-55.61909 11.05879,-79.88793 -12.3941,-6.35255 -30.42866,-11.17768 -52.49737,0.0612 z"
       style="fill:#ff6600;fill-rule:evenodd;stroke:none;stroke-width:1px;stroke-linecap:butt;stroke-linejoin:miter;stroke-opacity:1" />
    <path
       style="fill:#d45500;fill-rule:evenodd;stroke:none;stroke-width:1px;stroke-linecap:butt;stroke-linejoin:miter;stroke-opacity:1"
       d="m 295.70918,779.69559 -0.0732,0.48877 c 0,0 10.78079,25.79392 7.39497,38.70971 -7.62786,29.09788 -21.15712,39.16669 -21.15712,39.16669 0,0 10.83917,12.86749 9.74101,44.21947 -0.73283,20.92206 -16.44944,37.85931 -16.44944,37.85931 0,0 10.11724,14.16514 5.95012,25.37971 -1.82175,4.90272 -5.54282,7.43204 -10.26346,13.51774 15.45388,-12.05741 17.30833,-20.08012 7.60255,-38.74518 20.9734,-30.78674 18.01702,-45.83705 8.57977,-80.67037 19.83334,-24.23415 24.98365,-55.61845 11.05947,-79.88729 l -2.38474,-0.0385 z"
       id="path4272"
       inkscape:connector-curvature="0"
       sodipodi:nodetypes="ccscscscccccc" />
    <path
       inkscape:connector-curvature="0"
       id="path4274"
       d="m 281.53461,827.44796 c 0,0 6.42832,1.13808 8.31674,0.18583 1.88839,-0.95225 1.88839,-0.95225 1.88839,-0.95225 l -5.89605,3.19661 z"
       style="fill:#aa4400;fill-rule:evenodd;stroke:none;stroke-width:1px;stroke-linecap:butt;stroke-linejoin:miter;stroke-opacity:1" />
    <path
       style="fill:#aa4400;fill-rule:evenodd;stroke:none;stroke-width:1px;stroke-linecap:butt;stroke-linejoin:miter;stroke-opacity:1"
       d="m 258.70863,814.24024 c 0,0 10.4582,1.69021 13.94429,1.26766 3.48604,-0.42256 3.48604,-0.42256 3.48604,-0.42256 l -10.95621,1.47895 z"
       id="path4276"
       inkscape:connector-curvature="0" />
    <path
       inkscape:connector-curvature="0"
       id="path4278"
       d="m 261.56322,921.09856 c 0,0 6.10062,2.32404 8.13416,1.74303 2.03354,-0.58101 2.03354,-0.58101 2.03354,-0.58101 l -6.39113,2.03355 z"
       style="fill:#aa4400;fill-rule:evenodd;stroke:none;stroke-width:1px;stroke-linecap:butt;stroke-linejoin:miter;stroke-opacity:1" />
    <path
       style="fill:#aa4400;fill-rule:evenodd;stroke:none;stroke-width:1px;stroke-linecap:butt;stroke-linejoin:miter;stroke-opacity:1"
       d="m 258.3143,955.51922 c 0,0 6.10061,2.32404 8.13416,1.74302 2.03353,-0.581 2.03353,-0.581 2.03353,-0.581 l -6.39113,2.03354 z"
       id="path4280"
       inkscape:connector-curvature="0" />
    <path
       inkscape:connector-curvature="0"
       id="path4282"
       d="m 275.44057,872.20249 c 0,0 6.10062,2.32404 8.13416,1.74302 2.03353,-0.581 2.03353,-0.581 2.03353,-0.581 l -6.39112,2.03354 z"
       style="fill:#aa4400;fill-rule:evenodd;stroke:none;stroke-width:1px;stroke-linecap:butt;stroke-linejoin:miter;stroke-opacity:1" />
    <path
       inkscape:connector-curvature="0"
       id="path4284"
       d="m 274.03433,895.83744 c 0,0 10.57174,0.68493 14.00162,-0.0682 3.42985,-0.75314 3.42985,-0.75314 3.42985,-0.75314 l -10.76519,2.51728 z"
       style="fill:#aa4400;fill-rule:evenodd;stroke:none;stroke-width:1px;stroke-linecap:butt;stroke-linejoin:miter;stroke-opacity:1" />
    <path
       style="fill:#aa4400;fill-rule:evenodd;stroke:none;stroke-width:1px;stroke-linecap:butt;stroke-linejoin:miter;stroke-opacity:1"
       d="m 248.76033,871.72546 c 0,0 10.57174,0.68493 14.00162,-0.0682 3.42985,-0.75314 3.42985,-0.75314 3.42985,-0.75314 l -10.76519,2.51727 z"
       id="path4286"
       inkscape:connector-curvature="0" />
    <path
       style="fill:#aa4400;fill-rule:evenodd;stroke:none;stroke-width:1px;stroke-linecap:butt;stroke-linejoin:miter;stroke-opacity:1"
       d="m 246.43629,903.10008 c 0,0 10.57174,0.68492 14.00162,-0.0682 3.42985,-0.75314 3.42985,-0.75314 3.42985,-0.75314 l -10.76519,2.51727 z"
       id="path4288"
       inkscape:connector-curvature="0" />
    <path
       style="fill:#aa4400;fill-rule:evenodd;stroke:none;stroke-width:1px;stroke-linecap:butt;stroke-linejoin:miter;stroke-opacity:1"
       d="m 273.45331,842.96541 c 0,0 10.57174,0.68492 14.00162,-0.0682 3.42985,-0.75314 3.42985,-0.75314 3.42985,-0.75314 l -10.76519,2.51727 z"
       id="path4290"
       inkscape:connector-curvature="0" />
    <path
       inkscape:connector-curvature="0"
       id="path4292"
       d="m 284.20202,799.97057 c 0,0 10.57174,0.68493 14.00162,-0.0682 3.42985,-0.75315 3.42985,-0.75315 3.42985,-0.75315 l -10.76519,2.51728 z"
       style="fill:#aa4400;fill-rule:evenodd;stroke:none;stroke-width:1px;stroke-linecap:butt;stroke-linejoin:miter;stroke-opacity:1" />
    <path
       style="fill:#aa4400;fill-rule:evenodd;stroke:none;stroke-width:1px;stroke-linecap:butt;stroke-linejoin:miter;stroke-opacity:1"
       d="m 240.62617,787.76932 c 0,0 10.57174,0.68493 14.00162,-0.0682 3.42985,-0.75314 3.42985,-0.75314 3.42985,-0.75314 l -10.76519,2.51727 z"
       id="path4294"
       inkscape:connector-curvature="0" />
    <path
       inkscape:connector-curvature="0"
       id="path4296"
       d="m 242.65972,831.05468 c 0,0 10.57174,0.68492 14.00161,-0.0682 3.42986,-0.75314 3.42986,-0.75314 3.42986,-0.75314 l -10.7652,2.51728 z"
       style="fill:#aa4400;fill-rule:evenodd;stroke:none;stroke-width:1px;stroke-linecap:butt;stroke-linejoin:miter;stroke-opacity:1" />
    <path
       sodipodi:nodetypes="ccccccc"
       inkscape:connector-curvature="0"
       id="path4298"
       d="m 250.92322,776.23743 c 11.93078,19.33857 23.95497,27.55565 51.35464,32.86695 4.1884,19.42825 -15.21017,46.7211 -21.77436,46.83543 7.28095,29.23642 -8.72857,53.32221 -23.82856,81.34575 -16.81074,-26.29017 -17.37653,-56.18553 -3.28669,-79.29157 0,0 -11.91427,-20.13101 -15.61181,-34.51031 -2.36519,-18.71451 -2.54831,-35.57912 13.14678,-47.24625 z"
       style="opacity:0.19100001;fill:#ffb380;fill-rule:evenodd;stroke:none;stroke-width:1px;stroke-linecap:butt;stroke-linejoin:miter;stroke-opacity:1" />
    <path
       inkscape:connector-curvature="0"
       id="path4301"
       d="m 251.81967,745.40516 12.63639,28.53313 2.61442,-0.39086 -13.07212,-30.87833 z"
       style="fill:#5aa02c;fill-rule:evenodd;stroke:none;stroke-width:1px;stroke-linecap:butt;stroke-linejoin:miter;stroke-opacity:1" />
    <path
       style="fill:#5aa02c;fill-rule:evenodd;stroke:none;stroke-width:1px;stroke-linecap:butt;stroke-linejoin:miter;stroke-opacity:1"
       d="m 287.89856,745.01379 -11.91427,29.99111 -2.46503,-0.41083 12.32512,-32.45614 z"
       id="path4303"
       inkscape:connector-curvature="0" />
    <path
       inkscape:connector-curvature="0"
       id="path4305"
       d="m 283.23282,744.41175 -9.72769,30.76992 -2.48819,-0.23258 9.9603,-33.25811 z"
       style="fill:#5aa02c;fill-rule:evenodd;stroke:none;stroke-width:1px;stroke-linecap:butt;stroke-linejoin:miter;stroke-opacity:1" />
    <path
       style="fill:#5aa02c;fill-rule:evenodd;stroke:none;stroke-width:1px;stroke-linecap:butt;stroke-linejoin:miter;stroke-opacity:1"
       d="m 256.06947,744.35764 10.96075,30.35257 2.47677,-0.33274 -11.2935,-32.82935 z"
       id="path4307"
       inkscape:connector-curvature="0" />
    <path
       inkscape:connector-curvature="0"
       id="path4309"
       d="m 273.30362,741.92273 -4.30936,31.98196 2.35014,0.8497 5.15905,-34.3321 z"
       style="fill:#5aa02c;fill-rule:evenodd;stroke:none;stroke-width:1px;stroke-linecap:butt;stroke-linejoin:miter;stroke-opacity:1" />
    <path
       style="fill:#5aa02c;fill-rule:evenodd;stroke:none;stroke-width:1px;stroke-linecap:butt;stroke-linejoin:miter;stroke-opacity:1"
       d="m 266.00661,741.49124 4.30936,31.98197 -2.35014,0.8497 -5.15905,-34.3321 z"
       id="path4311"
       inkscape:connector-curvature="0" />
    <path
       style="fill:#71c837;fill-rule:evenodd;stroke:none;stroke-width:1px;stroke-linecap:butt;stroke-linejoin:miter;stroke-opacity:1"
       d="m 254.57277,745.51723 c -0.95238,1.82736 -2.63389,2.96036 -3.69968,2.08445 -1.06586,-0.876 -0.34154,-4.26452 -0.34154,-4.26452 0,0 -1.13404,2.16415 -2.28787,1.5751 -1.15383,-0.58903 -3.01593,-2.96485 -1.95257,-4.13019 1.06351,-1.16539 2.24396,-1.43151 2.24396,-1.43151 0,0 -4.39644,0.77202 -4.36063,-1.65014 0.0358,-2.42216 1.50663,-4.40458 2.61067,-3.9093 1.10403,0.49526 -0.34836,-0.65616 -0.34836,-0.65616 0,0 -2.97539,-1.30416 -2.49171,-2.88269 0.48369,-1.57852 2.75081,-2.06117 2.75081,-2.06117 0,0 -5.2101,-1.43949 -4.56211,-4.06651 0.64802,-2.62703 2.05987,-3.13626 2.87111,-2.96614 0.56108,-3.53284 3.22942,-2.91814 1.60508,-0.37158 0,0 3.14315,-1.54842 3.61417,0.2441 0.47103,1.7926 -0.26146,2.90242 -0.26146,2.90242 0,0 2.81786,-1.25582 2.87007,0.87945 0.0521,2.13515 -0.63063,3.33872 -0.63063,3.33872 0,0 4.30271,-0.72227 3.40589,1.43609 -0.8968,2.15831 -1.83417,2.65597 -1.83417,2.65597 0,0 4.393,1.03213 3.23579,2.24732 -1.15726,1.21515 -2.0565,1.33197 -2.0565,1.33197 0,0 3.2832,0.29967 2.52409,2.26471 -0.75912,1.96505 -1.6907,2.69997 -1.6907,2.69997 0,0 2.85268,0.1677 2.28106,2.03323 -0.57165,1.86554 -1.57616,1.55774 -1.57616,1.55774 0,0 3.61362,2.92167 1.29571,4.47875 -2.5914,1.74121 -3.21495,-3.33978 -3.21495,-3.33978 z"
       id="path4313"
       inkscape:connector-curvature="0"
       sodipodi:nodetypes="cscsccsccscsccscccscccscccscc" />
    <path
       sodipodi:nodetypes="cscsccsccscsccscccscccscccscc"
       inkscape:connector-curvature="0"
       id="path4315"
       d="m 265.51633,716.69218 c -1.42638,-1.48719 -3.35803,-2.10351 -4.13561,-0.96398 -0.77763,1.13963 0.86739,4.18932 0.86739,4.18932 0,0 -1.69515,-1.75956 -2.63764,-0.87074 -0.94249,0.88882 -2.06408,3.69131 -0.71671,4.51192 1.34751,0.82059 2.55523,0.7452 2.55523,0.7452 0,0 -4.43661,0.49114 -3.72336,2.80617 0.71322,2.31506 2.68074,3.80579 3.60171,3.02092 0.92098,-0.78484 -0.15048,0.72749 -0.15048,0.72749 0,0 -2.49062,2.08583 -1.5839,3.46552 0.90672,1.37969 3.21825,1.20758 3.21825,1.20758 0,0 -4.59781,2.84205 -3.23951,5.18217 1.35834,2.34011 2.85632,2.43322 3.58737,2.04255 1.52876,3.23397 3.91787,1.89604 1.64489,-0.0932 0,0 3.45116,0.60541 3.4009,-1.24728 -0.0503,-1.85277 -1.06446,-2.71281 -1.06446,-2.71281 0,0 3.05689,0.41571 2.50856,-1.6486 -0.5484,-2.06419 -1.54112,-3.02817 -1.54112,-3.02817 0,0 4.33269,-0.51261 2.86687,-2.33311 -1.46577,-1.82046 -2.50506,-2.03545 -2.50506,-2.03545 0,0 3.92765,-2.22201 2.47623,-3.06416 -1.45145,-0.84208 -2.34738,-0.7022 -2.34738,-0.7022 0,0 3.06761,-1.20785 1.78817,-2.88137 -1.27946,-1.67353 -2.37967,-2.1179 -2.37967,-2.1179 0,0 2.69134,-0.96051 1.61976,-2.59107 -1.07159,-1.63054 -1.94957,-1.05354 -1.94957,-1.05354 0,0 2.6499,-3.81737 -0.0115,-4.66239 -2.97556,-0.94511 -2.15005,4.10699 -2.15005,4.10699 z"
       style="fill:#69ba33;fill-opacity:1;fill-rule:evenodd;stroke:none;stroke-width:1px;stroke-linecap:butt;stroke-linejoin:miter;stroke-opacity:1" />
    <path
       style="fill:#71c837;fill-rule:evenodd;stroke:none;stroke-width:1px;stroke-linecap:butt;stroke-linejoin:miter;stroke-opacity:1"
       d="m 279.87825,716.30005 c -1.0858,-1.75138 -2.84698,-2.75606 -3.8446,-1.80322 -0.99769,0.95291 -0.0231,4.2781 -0.0231,4.2781 0,0 -1.29202,-2.07371 -2.3988,-1.4004 -1.10677,0.67331 -2.78682,3.18115 -1.63966,4.2641 1.14733,1.08297 2.34431,1.26047 2.34431,1.26047 0,0 -4.44172,-0.44256 -4.22567,1.97021 0.21601,2.41277 1.83036,4.2802 2.89446,3.70409 1.0641,-0.57608 -0.29854,0.68027 -0.29854,0.68027 0,0 -2.87005,1.52206 -2.27018,3.0602 0.59987,1.53814 2.89663,1.85066 2.89663,1.85066 0,0 -5.08846,1.82338 -4.24669,4.39487 0.84179,2.5715 2.28763,2.97419 3.08396,2.74415 0.82255,3.48126 3.43772,2.66961 1.62829,0.25106 0,0 3.24971,1.31011 3.58597,-0.51251 0.33627,-1.82268 -0.47682,-2.87489 -0.47682,-2.87489 0,0 2.90353,1.04255 2.79664,-1.09067 -0.10698,-2.13312 -0.87745,-3.28252 -0.87745,-3.28252 0,0 4.34454,0.39994 3.28952,-1.68567 -1.055,-2.08556 -2.02682,-2.51205 -2.02682,-2.51205 0,0 4.30397,-1.35633 3.0595,-2.48198 -1.24451,-1.12561 -2.14995,-1.17517 -2.14995,-1.17517 0,0 3.25177,-0.54326 2.34847,-2.44633 -0.90331,-1.9031 -1.88702,-2.56662 -1.88702,-2.56662 0,0 2.83229,-0.37961 2.12336,-2.19742 -0.70894,-1.81779 -1.68776,-1.43606 -1.68776,-1.43606 0,0 3.38607,-3.18259 0.95867,-4.56278 -2.71384,-1.54346 -2.95739,3.56986 -2.95739,3.56986 z"
       id="path4318"
       inkscape:connector-curvature="0"
       sodipodi:nodetypes="cscsccsccscsccscccscccscccscc" />
    <path
       sodipodi:nodetypes="cscsccsccscsccscccscccscccscc"
       inkscape:connector-curvature="0"
       id="path4320"
       d="m 285.90023,747.11725 c 0.68512,1.94342 2.19,3.30228 3.36868,2.58545 1.17878,-0.7169 0.93963,-4.17371 0.93963,-4.17371 0,0 0.81746,2.30247 2.04284,1.88206 1.22537,-0.4204 3.40396,-2.50982 2.51561,-3.8135 -0.8885,-1.30374 -2.01961,-1.73371 -2.01961,-1.73371 0,0 4.24359,1.38442 4.54978,-1.01857 0.30622,-2.403 -0.87029,-4.57307 -2.03317,-4.23845 -1.16284,0.33459 0.43742,-0.60046 0.43742,-0.60046 0,0 3.12962,-0.87145 2.87341,-2.50242 -0.2562,-1.63097 -2.43257,-2.42858 -2.43257,-2.42858 0,0 5.36102,-0.69021 5.09006,-3.38237 -0.271,-2.69217 -1.59689,-3.39544 -2.42403,-3.34145 -0.0572,-3.57665 -2.78554,-3.34447 -1.53663,-0.59426 0,0 -2.89332,-1.97627 -3.61247,-0.26811 -0.71916,1.70824 -0.15053,2.91028 -0.15053,2.91028 0,0 -2.61255,-1.64071 -2.96543,0.46583 -0.35276,2.10645 0.1534,3.39431 0.1534,3.39431 0,0 -4.15781,-1.32195 -3.57439,0.94132 0.58341,2.26324 1.44122,2.88814 1.44122,2.88814 0,0 -4.49467,0.40218 -3.52042,1.76844 0.97429,1.36622 1.84805,1.60872 1.84805,1.60872 0,0 -3.29263,-0.16643 -2.81827,1.88604 0.47436,2.05249 1.29296,2.91146 1.29296,2.91146 0,0 -2.84783,-0.23635 -2.54504,1.69117 0.30279,1.9275 1.34067,1.76448 1.34067,1.76448 0,0 -3.98957,2.38275 -1.91447,4.25121 2.3199,2.08931 3.6539,-2.85292 3.6539,-2.85292 z"
       style="fill:#6abc34;fill-opacity:1;fill-rule:evenodd;stroke:none;stroke-width:1px;stroke-linecap:butt;stroke-linejoin:miter;stroke-opacity:1" />
    <path
       style="fill:#75ca3d;fill-opacity:1;fill-rule:evenodd;stroke:none;stroke-width:1px;stroke-linecap:butt;stroke-linejoin:miter;stroke-opacity:1"
       d="m 280.97804,743.55873 c 0.36006,1.48238 1.15095,2.5189 1.7704,1.97211 0.6195,-0.54683 0.49383,-3.1836 0.49383,-3.1836 0,0 0.42961,1.75626 1.0736,1.43559 0.644,-0.32067 1.78895,-1.91442 1.32208,-2.90884 -0.46695,-0.99446 -1.0614,-1.32243 -1.0614,-1.32243 0,0 2.23021,1.056 2.39112,-0.77693 0.16093,-1.83295 -0.45737,-3.48822 -1.06852,-3.23299 -0.61113,0.25522 0.22988,-0.45802 0.22988,-0.45802 0,0 1.64478,-0.66471 1.51012,-1.90877 -0.13464,-1.24407 -1.27844,-1.85246 -1.27844,-1.85246 0,0 2.81748,-0.52648 2.67508,-2.57999 -0.14242,-2.05351 -0.83926,-2.58995 -1.27394,-2.54877 -0.03,-2.72818 -1.46393,-2.55107 -0.80758,-0.45328 0,0 -1.52057,-1.50745 -1.89853,-0.20451 -0.37795,1.30299 -0.0791,2.21989 -0.0791,2.21989 0,0 -1.37302,-1.2515 -1.55847,0.35531 -0.1854,1.60675 0.0806,2.58909 0.0806,2.58909 0,0 -2.18512,-1.00834 -1.87851,0.71803 0.30661,1.72633 0.75743,2.20298 0.75743,2.20298 0,0 -2.36216,0.30679 -1.85014,1.34893 0.51203,1.04212 0.97123,1.2271 0.97123,1.2271 0,0 -1.73043,-0.12695 -1.48113,1.43862 0.24929,1.56558 0.67951,2.22078 0.67951,2.22078 0,0 -1.49667,-0.18028 -1.33755,1.28999 0.15913,1.47024 0.7046,1.34589 0.7046,1.34589 0,0 -2.09673,1.81751 -1.00616,3.24271 1.21923,1.59368 1.92031,-2.17613 1.92031,-2.17613 z"
       id="path4322"
       inkscape:connector-curvature="0"
       sodipodi:nodetypes="cscsccsccscsccscccscccscccscc" />
    <path
       style="fill:#d40000;fill-rule:evenodd;stroke:none;stroke-width:1px;stroke-linecap:butt;stroke-linejoin:miter;stroke-opacity:1"
       d="m 342.69599,582.8876 c 0.51707,3.36093 12.92666,49.89692 17.0632,57.91145 7.71592,12.6327 13.80571,22.65047 33.09225,23.00946 3.29407,0.14267 10.86288,-2.87072 12.66814,-7.23893 1.23726,-2.99383 0,-5.94627 3.61946,-2.84387 3.61947,3.1024 6.2048,5.17066 11.37547,5.4292 5.17066,0.25853 12.66812,-0.7756 18.61439,-8.01453 7.75938,-8.19934 11.89684,-17.95144 10.8584,-29.47279 0.51706,-2.06827 5.17066,-5.68774 5.94626,-11.89254 0.7756,-6.20479 -2.07898,-45.68033 -3.878,-52.22372 -2.33982,-8.51042 -16.56638,-14.76811 -19.38999,-13.18519 -3.14854,-6.12736 -23.47737,-16.38934 -32.83373,-7.23894 -2.58533,2.84387 -3.56038,6.71033 -6.2048,4.91214 -3.23166,-2.19753 -9.04866,-3.61947 -12.40959,-3.1024 -3.36094,0.51707 -13.1852,4.6536 -15.512,6.46333 -7.9403,4.19021 -10.23196,7.8701 -12.4096,17.06319 -5.97426,3.8486 -11.3767,13.83528 -10.59986,20.42414 z"
       id="path4326"
       inkscape:connector-curvature="0"
       sodipodi:nodetypes="cccsssccssccssccc" />
    <path
       sodipodi:nodetypes="cscssscscscsssssssscsssssscscsssscssscsscssc"
       inkscape:connector-curvature="0"
       id="path4328"
       d="m 355.10559,566.34146 c 1.03413,0.51707 9.30719,1.80974 11.11693,4.6536 1.80973,2.84387 5.4292,5.68773 5.4292,5.68773 0,0 11.89253,-5.42919 17.58026,-5.94626 5.68773,-0.51707 16.80466,2.58533 19.38999,3.61947 2.58534,1.03413 3.1024,-6.9804 8.01454,-9.82427 4.91213,-2.84387 12.40959,-3.1024 12.40959,-3.1024 0,0 -2.84386,-3.36093 -1.03413,-8.79013 1.80973,-5.4292 5.17066,-6.9804 5.17066,-6.9804 0,0 9.82427,1.80973 11.89254,3.1024 2.06826,1.29267 7.23893,12.15107 7.23893,12.15107 0,0 -1.5512,3.36093 -6.2048,4.39506 -4.6536,1.03413 -8.27307,3.878 -8.5316,7.23893 -0.25853,3.36093 -3.1024,5.17067 -5.17067,5.68774 -2.06826,0.51706 -6.98039,1.29266 -8.53159,5.17066 -1.5512,3.878 -6.9804,7.756 -11.37547,5.94627 -4.39506,-1.80974 -8.27306,5.68773 -6.72186,12.15106 1.5512,6.46333 0.7756,43.95065 0.7756,45.50185 0,1.5512 -1.80973,10.59987 -2.58534,11.634 -0.77559,1.03413 -8.53159,4.39507 -8.53159,4.39507 0,0 3.1024,-16.2876 3.61946,-25.07773 0.51707,-8.79013 0.51707,-21.97533 -2.58533,-32.31666 -3.1024,-10.34133 -9.04866,-21.97533 -11.89253,-18.87293 -2.84387,3.1024 -2.58533,8.27307 -8.5316,3.61947 -5.94626,-4.6536 -4.39506,-8.01453 -12.66813,-6.2048 -8.27306,1.80973 -8.27306,-2.84387 -12.15106,-2.84387 -3.878,0 -2.58533,10.34133 -2.58533,10.34133 0,0 -4.91214,-8.27306 -3.878,-12.40959 1.03413,-4.13653 7.23893,-13.44373 7.23893,-13.44373 0,0 4.13653,-0.7756 5.68773,-3.61947 1.5512,-2.84386 5.17067,-7.756 9.3072,-10.8584 4.13653,-3.1024 12.66813,-8.53159 16.54613,-7.49746 3.878,1.03413 4.91213,1.29267 6.9804,3.61946 2.06826,2.32681 4.91213,3.878 4.91213,3.878 0,0 4.39506,-4.65359 7.49746,-6.20479 3.1024,-1.55121 0.7756,-5.94627 6.9804,-6.46334 6.2048,-0.51706 14.99493,-0.51706 16.54613,3.61947 1.5512,4.13653 -4.39507,11.11693 -4.39507,11.11693 0,0 -4.91213,-5.4292 -5.94626,-6.2048 -1.03413,-0.7756 -8.27307,-0.7756 -10.34133,2.58534 -2.06827,3.36093 -10.34133,5.68773 -10.34133,5.68773 0,0 -2.3268,-4.91214 -8.27307,-1.80974 -5.94626,3.1024 -14.99493,12.15107 -17.83879,12.66813 -2.84387,0.51707 -14.21933,0 -14.21933,0 z"
       style="fill:#df0000;fill-opacity:1;fill-rule:evenodd;stroke:none;stroke-width:1px;stroke-linecap:butt;stroke-linejoin:miter;stroke-opacity:1" />
    <path
       inkscape:connector-curvature="0"
       id="path4330"
       d="m 385.35398,570.21946 -3.36093,-0.7756 3.878,-1.03413 -1.03414,-2.84387 3.61947,0 0,-2.3268 2.84387,0.51707 2.32679,-3.61946 c 0,0 3.36094,1.80973 4.39507,1.55119 1.03413,-0.25853 4.91213,-3.36093 4.91213,-3.36093 0,0 6.9804,0.51707 8.01453,1.29267 1.03414,0.7756 3.878,0.7756 3.878,0.7756 l 0,3.36093 c 0,0 -1.29266,1.5512 -2.06826,3.878 -0.7756,2.3268 -3.61947,6.72187 -3.61947,6.72187 0,0 -7.756,-4.13654 -13.44373,-3.878 -5.68773,0.25853 -10.34133,-0.25854 -10.34133,-0.25854 z"
       style="fill:#668000;fill-rule:evenodd;stroke:none;stroke-width:1px;stroke-linecap:butt;stroke-linejoin:miter;stroke-opacity:1" />
    <path
       sodipodi:nodetypes="ccccsscssc"
       inkscape:connector-curvature="0"
       id="path4332"
       d="m 392.85144,564.2732 c 0,0 1.5512,-16.02907 3.61947,-20.9412 3.13045,-4.99112 8.12793,-14.85792 13.1852,-18.35586 11.26389,-3.03999 14.65556,4.19352 17.32173,11.89253 0,0 -1.29267,2.06826 -5.17067,3.1024 -3.878,1.03413 -10.34133,1.80973 -12.92666,6.9804 -2.58533,5.17066 -3.61947,19.38999 -3.61947,19.38999 0,0 0.7756,1.5512 -2.84386,2.06827 -3.61947,0.51707 -3.878,1.29267 -6.9804,0.25853 -3.1024,-1.03413 -2.58534,-4.39506 -2.58534,-4.39506 z"
       style="fill:#338000;fill-rule:evenodd;stroke:none;stroke-width:1px;stroke-linecap:butt;stroke-linejoin:miter;stroke-opacity:1" />
    <path
       sodipodi:nodetypes="ccscc"
       inkscape:connector-curvature="0"
       id="path4334"
       d="m 439.1289,546.69294 c 14.47915,8.72644 14.64351,25.5489 13.1852,40.58972 0,0 -2.84387,-15.25347 -5.68774,-18.87293 -2.84386,-3.61947 -10.34133,-6.72187 -13.18519,-9.82427 -6.76316,-10.04979 0.42976,-14.10426 5.68773,-11.89252 z"
       style="fill:#ff9e9e;fill-opacity:0.35051545;fill-rule:evenodd;stroke:none;stroke-width:1px;stroke-linecap:butt;stroke-linejoin:miter;stroke-opacity:1" />
    <g
       id="g4338"
       transform="matrix(0.93290433,0.38020535,-0.38020535,0.93290433,85.1425,393.10214)">
      <path
         style="opacity:1;fill:#aa0000;stroke:none"
         d="m 211.62696,271.00922 a 70.205605,67.680222 0 0 1 -70.2056,67.68022 70.205605,67.680222 0 0 1 -70.205608,-67.68022 70.205605,67.680222 0 0 1 70.205608,-67.68023 70.205605,67.680222 0 0 1 70.2056,67.68023 z"
         id="path4340"
         inkscape:connector-curvature="0" />
      <path
         style="fill:#aa0000;fill-rule:evenodd;stroke:none;stroke-width:1px;stroke-linecap:butt;stroke-linejoin:miter;stroke-opacity:1"
         d="m 113.25013,332.56906 c 0,0 26.96358,22.49322 26.96358,29.90697 0,7.41377 -4.11875,12.35628 -3.29501,21.41755 0.82376,9.06127 2.47126,12.35627 3.29501,18.12252 0.82374,5.76627 1.6475,8.23753 1.6475,8.23753 0,0 0.82376,-12.35628 -1.6475,-22.24129 -2.47125,-9.88503 0.82374,-13.18003 2.47126,-19.77004 1.6475,-6.59001 1.85344,-9.26721 2.67718,-15.85722 0.82376,-6.59001 23.49603,-18.94081 23.49603,-18.94081 -3.25057,-8.39229 -52.55221,-9.71943 -55.60805,-0.87521 z"
         id="path4342"
         inkscape:connector-curvature="0"
         sodipodi:nodetypes="cssscssscc" />
    </g>
    <path
       sodipodi:nodetypes="cssscsssscc"
       inkscape:connector-curvature="0"
       id="path4345"
       d="m 68.849528,646.6207 c 0,0 12.882109,12.24347 25.13559,18.40294 12.253482,6.15947 42.404352,17.02993 51.976102,21.18287 18.05571,7.83392 40.12525,2.83676 37.32397,1.21657 -0.82882,-0.47937 2.55129,18.54989 0.49761,18.47135 0,0 -8.82233,-9.81188 -13.09208,-10.77497 -4.26973,-0.96309 -19.62117,-3.33437 -28.20967,-8.00018 -8.5885,-4.66579 -26.8454,-11.92594 -38.77828,-16.01216 -11.93288,-4.0862 -28.839326,-16.69044 -33.442242,-17.78932 -4.602918,-1.09888 -9.680182,1.19988 -9.680182,1.19988 z"
       style="fill:#800000;fill-rule:evenodd;stroke:none;stroke-width:1px;stroke-linecap:butt;stroke-linejoin:miter;stroke-opacity:1" />
    <path
       sodipodi:nodetypes="cccc"
       inkscape:connector-curvature="0"
       id="path4347"
       d="m 50.329665,669.18325 c 8.812411,12.78307 20.362588,18.62428 37.516609,27.7835 -25.343675,-7.53989 -32.569917,-14.48053 -40.892752,-19.73783 z"
       style="fill:#800000;fill-rule:evenodd;stroke:none;stroke-width:1px;stroke-linecap:butt;stroke-linejoin:miter;stroke-opacity:1" />
    <path
       sodipodi:nodetypes="cccc"
       inkscape:connector-curvature="0"
       id="path4349"
       d="m 176.92409,732.14594 c -9.57262,4.50419 -22.63582,0.36194 -33.64603,-3.13015 14.53226,8.19005 19.37481,8.47786 31.01416,7.68131 z"
       style="fill:#800000;fill-rule:evenodd;stroke:none;stroke-width:1px;stroke-linecap:butt;stroke-linejoin:miter;stroke-opacity:1" />
    <path
       sodipodi:nodetypes="cscsc"
       inkscape:connector-curvature="0"
       id="path4351"
       d="m 98.28672,687.78386 c 3.52641,1.98663 16.83701,8.51028 23.82571,11.0838 6.9887,2.57352 17.45569,4.91626 17.45569,4.91626 0,0 -13.81188,-1.92024 -21.69687,-5.4085 -7.88499,-3.48825 -19.58453,-10.59156 -19.58453,-10.59156 z"
       style="fill:#800000;fill-rule:evenodd;stroke:none;stroke-width:1px;stroke-linecap:butt;stroke-linejoin:miter;stroke-opacity:1" />
    <path
       style="fill:#800000;fill-rule:evenodd;stroke:none;stroke-width:1px;stroke-linecap:butt;stroke-linejoin:miter;stroke-opacity:1"
       d="m 108.84398,730.59842 c 3.61778,1.81492 17.22642,7.69157 24.33053,9.92679 7.10425,2.23479 17.67171,4.07197 17.67171,4.07197 0,0 -13.88819,-1.25446 -21.93165,-4.35989 -8.04347,-3.10542 -20.07075,-9.63846 -20.07075,-9.63846 z"
       id="path4353"
       inkscape:connector-curvature="0"
       sodipodi:nodetypes="cscsc" />
    <path
       sodipodi:nodetypes="cscsc"
       inkscape:connector-curvature="0"
       id="path4355"
       d="m 58.382159,658.05615 c 2.741494,2.11491 13.214813,9.13495 18.823354,11.97977 5.608566,2.84476 14.202894,5.61279 14.202894,5.61279 0,0 -11.491464,-2.49604 -17.744083,-6.28306 -6.252619,-3.78702 -15.282165,-11.3095 -15.282165,-11.3095 z"
       style="fill:#800000;fill-rule:evenodd;stroke:none;stroke-width:1px;stroke-linecap:butt;stroke-linejoin:miter;stroke-opacity:1" />
    <path
       style="fill:#800000;fill-rule:evenodd;stroke:none;stroke-width:1px;stroke-linecap:butt;stroke-linejoin:miter;stroke-opacity:1"
       d="m 54.335129,713.82439 c 2.741493,2.11491 13.214815,9.13495 18.823357,11.97977 5.60856,2.84476 14.202887,5.61279 14.202887,5.61279 0,0 -11.491464,-2.49604 -17.744082,-6.28306 -6.252618,-3.78702 -15.282162,-11.3095 -15.282162,-11.3095 z"
       id="path4357"
       inkscape:connector-curvature="0"
       sodipodi:nodetypes="cscsc" />
    <path
       sodipodi:nodetypes="ccccscscc"
       inkscape:connector-curvature="0"
       id="path4359"
       d="m 65.644943,808.23763 c -0.219897,-0.0143 -0.828194,3.82435 -0.988078,4.78053 -0.548506,3.70199 -1.020208,6.58986 -1.94067,10.35649 -0.598398,2.31686 -1.228247,6.51881 -1.228247,6.51881 0,0 0.746665,-1.96554 1.273011,-3.12357 0.459686,-1.01128 1.255486,-2.85555 2.045622,-5.06869 0.98225,-1.91896 2.261008,-7.17325 2.722205,-8.94353 0.215273,-0.82631 1.129015,-5.38553 1.038838,-5.64724 -1.026727,1.10378 -1.540253,1.37189 -2.922653,1.12721 z"
       style="fill:#d35f5f;fill-rule:evenodd;stroke:none;stroke-width:1px;stroke-linecap:butt;stroke-linejoin:miter;stroke-opacity:1" />
    <path
       sodipodi:nodetypes="cssscscssscccsscsssssssssssssssscscsscsscssscc"
       inkscape:connector-curvature="0"
       id="path4361"
       d="m 104.22952,651.3268 c 0.92535,1.54269 9.2297,8.81234 16.22648,11.66388 6.99678,2.85154 12.48861,0.81601 16.35098,2.77864 3.86237,1.96262 16.90543,9.99797 19.58345,9.1468 2.67802,-0.85117 3.93655,0.82729 3.93655,0.82729 0,0 -5.17122,4.1088 -9.9225,5.28058 -4.75129,1.17178 -8.36724,2.41774 -8.36724,2.41774 0,0 -1.62945,3.99816 3.50403,5.70179 5.1335,1.70363 10.34118,2.27194 7.52737,3.4563 -2.81382,1.18435 -10.88432,-0.93922 -15.30242,0.36834 -4.4181,1.30757 -8.29305,1.28241 -8.29305,1.28241 l 3.24504,4.43069 -6.62715,1.96134 c 0,0 -1.53012,-1.01212 4.31876,3.70271 5.84888,4.71484 5.23154,7.18288 2.55352,8.03406 -2.67802,0.85117 -6.29397,2.09713 -6.29397,2.09713 0,0 21.57123,1.40948 20.48493,4.07492 -1.0863,2.66544 -8.91039,3.75045 -12.98273,3.25633 -4.07234,-0.49412 -4.96126,2.64029 -6.84971,5.36733 -1.88844,2.72705 -4.62807,2.77608 -7.30609,3.62725 -2.67802,0.85117 -3.94912,1.11017 -6.71391,5.03416 -2.76477,3.92397 -4.23328,3.714 -6.9113,4.56517 -2.67803,0.85118 -4.0359,4.18298 -4.91223,5.37992 -0.87633,1.19693 -10.097314,21.9157 -14.761836,20.01467 -4.664521,-1.90102 1.210802,-11.55067 0.643781,-16.83253 -0.567021,-5.28185 -3.837223,-5.83758 -7.946018,-11.00881 -4.10879,-5.17121 -3.380822,-4.09749 -0.776988,-3.81334 2.603838,0.28415 6.071427,1.30885 0.827299,-3.93655 -5.244114,-5.24541 -5.231542,-7.18289 -1.097589,-5.88661 4.133948,1.29626 16.499346,0.50798 12.377975,-2.72577 -4.121372,-3.23374 -9.352914,-10.41663 -5.885325,-9.39193 3.467589,1.0247 14.339318,3.90139 8.231445,-2.08456 -6.10787,-5.98595 -6.354289,-9.19454 -6.354289,-9.19454 0,0 10.933339,3.67884 8.206287,1.7904 -2.727039,-1.88845 -12.91855,-16.92058 -12.91855,-16.92058 0,0 -0.666364,-0.27157 3.270189,0.55574 3.936556,0.8273 5.49183,-2.03553 7.478331,0.71667 1.986502,2.75219 11.217498,1.075 11.217498,1.075 0,0 -7.663146,-3.12312 -9.649648,-5.87531 -1.986511,-2.7522 -0.184815,-2.40645 4.084915,-1.44335 4.269743,0.96309 9.699963,-1.8746 9.699963,-1.8746 0,0 -5.12091,-3.6411 -5.91048,-5.51697 -0.78957,-1.87587 9.48999,-0.40608 3.64111,-5.12092 -5.84888,-4.71482 -5.08446,1.036 -6.83584,-7.05967 -1.751381,-8.09566 -2.256801,-12.57536 -2.256801,-12.57536 z"
       style="opacity:0.48800001;fill:#d35f5f;fill-rule:evenodd;stroke:none;stroke-width:1px;stroke-linecap:butt;stroke-linejoin:miter;stroke-opacity:1" />
    <path
       inkscape:connector-curvature="0"
       id="path4363"
       d="m 128.65623,633.15665 -4.31573,-92.74023 7.56696,0.99621 2.79159,94.18184 z"
       style="fill:#800000;fill-rule:evenodd;stroke:none;stroke-width:1px;stroke-linecap:butt;stroke-linejoin:miter;stroke-opacity:1" />
    <path
       style="fill:#800000;fill-rule:evenodd;stroke:none;stroke-width:1px;stroke-linecap:butt;stroke-linejoin:miter;stroke-opacity:1"
       d="m 147.66744,641.68791 69.23426,-61.85461 -6.00957,-4.70493 -69.19631,63.95217 z"
       id="path4365"
       inkscape:connector-curvature="0" />
    <path
       inkscape:connector-curvature="0"
       id="path4367"
       d="m 146.20148,638.90494 60.25555,-70.63033 -6.58942,-3.85108 -59.93495,72.70359 z"
       style="fill:#800000;fill-rule:evenodd;stroke:none;stroke-width:1px;stroke-linecap:butt;stroke-linejoin:miter;stroke-opacity:1" />
    <path
       style="fill:#800000;fill-rule:evenodd;stroke:none;stroke-width:1px;stroke-linecap:butt;stroke-linejoin:miter;stroke-opacity:1"
       d="m 132.89878,634.84325 6.28038,-92.62793 7.40415,1.852 -7.95886,93.88646 z"
       id="path4369"
       inkscape:connector-curvature="0" />
    <path
       style="fill:#800000;fill-rule:evenodd;stroke:none;stroke-width:1px;stroke-linecap:butt;stroke-linejoin:miter;stroke-opacity:1"
       d="m 143.58638,638.3883 43.30832,-82.12044 -7.27331,-2.31305 -42.54107,84.07299 z"
       id="path4371"
       inkscape:connector-curvature="0" />
    <path
       inkscape:connector-curvature="0"
       id="path4373"
       d="m 141.91055,636.17946 29.79142,-87.93092 -7.54739,-1.13501 -28.72533,89.73777 z"
       style="fill:#800000;fill-rule:evenodd;stroke:none;stroke-width:1px;stroke-linecap:butt;stroke-linejoin:miter;stroke-opacity:1" />
    <path
       style="fill:#005500;fill-rule:evenodd;stroke:none;stroke-width:1px;stroke-linecap:butt;stroke-linejoin:miter;stroke-opacity:1"
       d="m 119.90835,506.22107 c 3.84521,-2.11007 9.06682,-3.01104 11.18295,-1.43123 2.11627,1.57993 -2.30469,5.88163 -2.30469,5.88163 0,0 4.56986,-2.49667 7.12975,-1.27108 2.5599,1.22558 5.62406,5.1265 1.98588,6.30188 -3.63856,1.17539 -6.90801,1.09373 -6.90801,1.09373 0,0 12.01253,0.59978 10.10584,3.85462 -1.90665,3.25488 -7.21635,5.38062 -9.71698,4.30012 -2.50058,-1.08047 0.41473,1.0154 0.41473,1.0154 0,0 6.76208,2.87062 4.32219,4.81995 -2.4399,1.94931 -8.69768,1.75409 -8.69768,1.75409 0,0 12.4728,3.88755 8.82059,7.19027 -3.65232,3.3027 -7.70559,3.46265 -9.68814,2.93024 -4.10444,4.55734 -10.58411,2.73168 -4.45277,-0.0978 0,0 -9.3342,0.91576 -9.21713,-1.67876 0.11696,-2.59461 2.85315,-3.81861 2.85315,-3.81861 0,0 -8.26907,0.64239 -6.80613,-2.2582 1.46309,-2.90044 4.13998,-4.26952 4.13998,-4.26952 0,0 -11.73147,-0.63188 -7.78293,-3.20936 3.94846,-2.57738 6.75902,-2.89889 6.75902,-2.89889 0,0 -10.65273,-3.03284 -6.73313,-4.24043 3.91965,-1.20752 6.3459,-1.02943 6.3459,-1.02943 0,0 -8.31471,-1.63015 -4.8691,-3.99817 3.44569,-2.36802 6.41879,-3.01182 6.41879,-3.01182 0,0 -7.29379,-1.29137 -4.41032,-3.59512 2.88355,-2.30373 5.26568,-1.51337 5.26568,-1.51337 0,0 -7.21089,-5.29138 -0.0181,-6.52693 8.04355,-1.38187 5.86102,5.7067 5.86102,5.7067 z"
       id="path4375"
       inkscape:connector-curvature="0"
       sodipodi:nodetypes="cscsccsccscsccscccscccscccscc" />
    <path
       style="fill:#005500;fill-rule:evenodd;stroke:none;stroke-width:1px;stroke-linecap:butt;stroke-linejoin:miter;stroke-opacity:1"
       d="m 177.09997,517.07678 c 4.36076,-0.47094 9.5278,0.7032 10.87463,2.97473 1.34692,2.27169 -4.38736,4.54491 -4.38736,4.54491 0,0 5.17832,-0.5495 7.07094,1.56547 1.89264,2.11496 3.22306,6.89369 -0.58748,6.58121 -3.8109,-0.31263 -6.79808,-1.64403 -6.79808,-1.64403 0,0 10.86029,5.16857 7.84952,7.44116 -3.01076,2.27264 -8.72965,2.19544 -10.62329,0.2372 -1.89361,-1.9582 -0.007,1.09681 -0.007,1.09681 0,0 5.14039,5.2481 2.13886,6.11051 -3.00153,0.86241 -8.7041,-1.72187 -8.7041,-1.72187 0,0 10.0222,8.38088 5.38145,10.02709 -4.64084,1.64616 -8.44451,0.23671 -10.07041,-1.01648 -5.54025,2.63084 -10.82134,-1.54401 -4.07349,-1.80093 0,0 -8.96973,-2.74043 -7.86492,-5.09087 1.10476,-2.35057 4.1012,-2.42949 4.1012,-2.42949 0,0 -7.88132,-2.58361 -5.41632,-4.69961 2.46507,-2.1158 5.4625,-2.35145 5.4625,-2.35145 0,0 -10.58849,-5.09024 -5.95279,-5.953 4.6356,-0.86272 7.35401,-0.0798 7.35401,-0.0798 0,0 -8.67016,-6.89254 -4.58741,-6.50169 4.08276,0.39094 6.2544,1.48745 6.2544,1.48745 0,0 -7.05041,-4.69929 -2.95948,-5.5619 4.09099,-0.86259 7.08326,-0.31482 7.08326,-0.31482 0,0 -6.23799,-3.9943 -2.69075,-5.01354 3.54728,-1.01918 5.44299,0.62566 5.44299,0.62566 0,0 -4.62477,-7.65553 2.49074,-6.03302 7.95719,1.81423 3.21894,7.5204 3.21894,7.5204 z"
       id="path4377"
       inkscape:connector-curvature="0"
       sodipodi:nodetypes="cscsccsccscsccscccscccscccscc" />
    <path
       sodipodi:nodetypes="cscsccsccscsccscccscccscccscc"
       inkscape:connector-curvature="0"
       id="path4379"
       d="m 209.29719,535.14383 c 4.36077,-0.47094 9.52781,0.7032 10.87464,2.97472 1.34692,2.27169 -4.38736,4.54491 -4.38736,4.54491 0,0 5.17832,-0.54949 7.07094,1.56548 1.89263,2.11495 3.22306,6.89368 -0.58748,6.58121 -3.8109,-0.31264 -6.79808,-1.64403 -6.79808,-1.64403 0,0 10.86029,5.16856 7.84952,7.44115 -3.01076,2.27264 -8.72965,2.19544 -10.62329,0.2372 -1.89361,-1.9582 -0.007,1.09681 -0.007,1.09681 0,0 5.14039,5.24811 2.13886,6.11052 -3.00154,0.8624 -8.7041,-1.72187 -8.7041,-1.72187 0,0 10.0222,8.38088 5.38145,10.02708 -4.64085,1.64617 -8.44452,0.23671 -10.07041,-1.01647 -5.54026,2.63084 -10.82135,-1.54401 -4.0735,-1.80094 0,0 -8.96973,-2.74042 -7.86491,-5.09086 1.10475,-2.35058 4.1012,-2.4295 4.1012,-2.4295 0,0 -7.88132,-2.58361 -5.41632,-4.6996 2.46506,-2.1158 5.46249,-2.35145 5.46249,-2.35145 0,0 -10.58848,-5.09024 -5.95279,-5.953 4.63561,-0.86273 7.35402,-0.0798 7.35402,-0.0798 0,0 -8.67015,-6.89255 -4.58741,-6.5017 4.08276,0.39095 6.2544,1.48746 6.2544,1.48746 0,0 -7.05041,-4.6993 -2.95949,-5.5619 4.091,-0.86259 7.08327,-0.31482 7.08327,-0.31482 0,0 -6.23799,-3.99431 -2.69075,-5.01354 3.54728,-1.01919 5.44298,0.62566 5.44298,0.62566 0,0 -4.62476,-7.65553 2.49075,-6.03302 7.95718,1.81423 3.21894,7.5204 3.21894,7.5204 z"
       style="fill:#005500;fill-rule:evenodd;stroke:none;stroke-width:1px;stroke-linecap:butt;stroke-linejoin:miter;stroke-opacity:1" />
    <path
       style="fill:#006700;fill-opacity:1;fill-rule:evenodd;stroke:none;stroke-width:1px;stroke-linecap:butt;stroke-linejoin:miter;stroke-opacity:1"
       d="m 233.50053,557.36146 c 4.18618,1.30917 8.45483,4.44853 8.78282,7.06887 0.32799,2.62053 -5.83703,2.41543 -5.83703,2.41543 0,0 4.96712,1.56355 5.85801,4.25826 0.8909,2.69469 0.20288,7.60721 -3.16606,5.79944 -3.36922,-1.80807 -5.57648,-4.22134 -5.57648,-4.22134 0,0 7.89381,9.07457 4.2261,9.9562 -3.66773,0.88168 -8.88026,-1.47226 -9.83467,-4.02368 -0.95437,-2.55137 -0.44445,1.00274 -0.44445,1.00274 0,0 2.61775,6.86393 -0.4785,6.45632 -3.09626,-0.40761 -7.29294,-5.05365 -7.29294,-5.05365 0,0 5.84295,11.6852 0.93086,11.34179 -4.91216,-0.34348 -7.83685,-3.15431 -8.82725,-4.95238 -6.1299,0.20025 -9.30513,-5.73584 -3.01579,-3.27745 0,0 -7.12984,-6.09355 -5.17852,-7.80748 1.95132,-1.71407 4.73012,-0.59016 4.73012,-0.59016 0,0 -6.19454,-5.51524 -3.08973,-6.47119 3.10479,-0.95574 5.94706,0.0249 5.94706,0.0249 0,0 -7.67587,-8.89424 -3.0812,-7.83455 4.5946,1.05968 6.77441,2.86274 6.77441,2.86274 0,0 -5.19751,-9.78083 -1.61028,-7.79252 3.5872,1.98839 5.14051,3.86072 5.14051,3.86072 0,0 -4.58807,-7.12329 -0.49292,-6.28095 4.09519,0.84239 6.61998,2.53922 6.61998,2.53922 0,0 -4.12465,-6.15258 -0.46546,-5.6709 3.65922,0.48175 4.74062,2.74665 4.74062,2.74665 0,0 -1.18389,-8.86533 4.69221,-4.537 6.57125,4.84014 -0.0511,8.18019 -0.0511,8.18019 z"
       id="path4381"
       inkscape:connector-curvature="0"
       sodipodi:nodetypes="cscsccsccscsccscccscccscccscc" />
    <path
       style="fill:#006400;fill-opacity:1;fill-rule:evenodd;stroke:none;stroke-width:1px;stroke-linecap:butt;stroke-linejoin:miter;stroke-opacity:1"
       d="m 196.66492,526.65426 c 4.28371,0.94226 8.80785,3.70071 9.3612,6.28288 0.55338,2.58236 -5.60628,2.91115 -5.60628,2.91115 0,0 5.08372,1.12815 6.20429,3.73571 1.1206,2.60756 0.85998,7.56119 -2.65267,6.05151 -3.51296,-1.50994 -5.92063,-3.72329 -5.92063,-3.72329 0,0 8.64897,8.35795 5.07124,9.55344 -3.57774,1.19556 -8.97432,-0.6988 -10.14578,-3.15813 -1.17144,-2.45927 -0.35612,1.03741 -0.35612,1.03741 0,0 3.20152,6.61184 0.0816,6.47352 -3.1199,-0.13833 -7.70263,-4.40405 -7.70263,-4.40405 0,0 6.83155,11.13614 1.90817,11.2188 -4.92346,0.0826 -8.08027,-2.46477 -9.22245,-4.17048 -6.08962,0.72959 -9.76629,-4.90968 -3.28791,-3.00438 0,0 -7.63009,-5.45417 -5.83428,-7.33041 1.79577,-1.8764 4.66135,-0.99699 4.66135,-0.99699 0,0 -6.64826,-4.95891 -3.63776,-6.17977 3.01052,-1.22066 5.92694,-0.4895 5.92694,-0.4895 0,0 -8.41626,-8.19715 -3.74715,-7.53876 4.66902,0.6584 6.99658,2.2662 6.99658,2.2662 0,0 -6.02385,-9.29472 -2.27812,-7.62407 3.74572,1.67075 5.45511,3.40173 5.45511,3.40173 0,0 -5.18686,-6.69985 -1.03422,-6.21479 4.15271,0.48509 6.81476,1.95723 6.81476,1.95723 0,0 -4.64125,-5.77285 -0.95411,-5.6094 3.68718,0.16351 4.96038,2.32641 4.96038,2.32641 0,0 -1.94609,-8.72974 4.2823,-4.92576 6.96519,4.25374 0.65649,8.15395 0.65649,8.15395 z"
       id="path4383"
       inkscape:connector-curvature="0"
       sodipodi:nodetypes="cscsccsccscsccscccscccscccscc" />
    <path
       sodipodi:nodetypes="cscsccsccscsccscccscccscccscc"
       inkscape:connector-curvature="0"
       id="path4385"
       d="m 153.67718,504.33275 c 5.13087,-0.38522 11.26586,1.08887 12.92794,3.66368 1.6622,2.575 -5.03177,4.92491 -5.03177,4.92491 0,0 6.0931,-0.44658 8.39423,1.97122 2.30115,2.41778 4.02416,7.78641 -0.4825,7.31611 -4.50707,-0.47048 -8.07475,-2.05002 -8.07475,-2.05002 0,0 12.98127,6.10831 9.50118,8.54475 -3.48009,2.4365 -10.23116,2.1673 -12.52848,-0.0758 -2.29728,-2.24311 0.0266,1.22219 0.0266,1.22219 0,0 6.23402,6.01378 2.71967,6.87883 -3.51436,0.86505 -10.32647,-2.19782 -10.32647,-2.19782 0,0 12.09515,9.66168 6.67153,11.3478 -5.42373,1.68606 -9.9574,-0.007 -11.91618,-1.4554 -6.45356,2.75471 -12.81924,-2.0674 -4.86463,-2.13765 0,0 -10.67253,-3.34154 -9.44407,-5.92578 1.22839,-2.5844 4.76183,-2.5764 4.76183,-2.5764 0,0 -9.38312,-3.1319 -6.54206,-5.41129 2.84116,-2.27917 6.37074,-2.44581 6.37074,-2.44581 0,0 -12.65801,-6.01231 -7.21526,-6.82542 5.44264,-0.81308 8.67558,0.14653 8.67558,0.14653 0,0 -10.452,-7.95959 -5.62162,-7.39323 4.8304,0.56647 7.42818,1.85811 7.42818,1.85811 0,0 -8.47037,-5.46328 -3.67049,-6.29366 4.79998,-0.83036 8.34857,-0.12403 8.34857,-0.12403 0,0 -7.48909,-4.65154 -3.3358,-5.6739 4.15335,-1.0223 6.44306,0.87163 6.44306,0.87163 0,0 -5.70265,-8.6804 2.74601,-6.64419 9.44801,2.27684 4.03937,8.48477 4.03937,8.48477 z"
       style="fill:#006900;fill-opacity:1;fill-rule:evenodd;stroke:none;stroke-width:1px;stroke-linecap:butt;stroke-linejoin:miter;stroke-opacity:1" />
    <path
       sodipodi:nodetypes="ccccc"
       inkscape:connector-curvature="0"
       id="path4387"
       d="m 128.90063,633.2138 c 6.01648,-0.0553 13.68809,5.09682 20.72506,8.25224 4.28734,2.87283 11.67508,7.8343 15.62173,12.19444 -13.99364,6.12294 -52.16823,-10.76452 -55.80767,-22.74442 4.48354,0.26665 15.0781,1.32876 19.46088,2.29774 z"
       style="fill:#800000;fill-opacity:0.86082476;fill-rule:evenodd;stroke:none;stroke-width:1px;stroke-linecap:butt;stroke-linejoin:miter;stroke-opacity:1" />
    <path
       sodipodi:nodetypes="sssss"
       inkscape:connector-curvature="0"
       id="path4391"
       d="m 727.8404,630.71569 c 31.66761,-59.61516 91.42214,-33.34423 50.29816,33.27274 -6.8387,11.07809 -44.88612,77.3655 -61.6885,104.19842 -37.08128,59.21777 -93.14048,30.53789 -51.62169,-34.65289 9.99344,-15.69118 53.373,-84.6726 63.01203,-102.81827 z"
       style="fill:#008000;fill-rule:evenodd;stroke:none;stroke-width:1px;stroke-linecap:butt;stroke-linejoin:miter;stroke-opacity:1" />
    <path
       inkscape:connector-curvature="0"
       id="path4393"
       d="m 764.94648,598.71586 c 0,0 -1.52587,0.68405 -2.0925,1.14953 -0.56663,0.46546 0.35226,5.97398 -1.53791,5.05931 -1.89016,-0.91468 -3.14084,-1.97507 -3.242,-0.94298 -0.10116,1.0321 1.9853,2.07022 -0.0566,2.70368 -2.0419,0.63347 -2.82712,0.13971 -3.44433,1.12123 -0.61721,0.98151 -0.8924,2.72595 -0.8924,2.72595 l -2.92828,1.17181 c 0,0 -0.91468,1.89017 -1.01584,2.92227 -0.10116,1.03209 1.2001,1.57644 -0.91468,1.89015 -2.11477,0.31373 -2.8211,-2.04792 -2.43451,0.3866 0.38658,2.43452 3.28657,2.61456 1.31752,3.56777 -1.96907,0.95323 -4.17296,-2.07623 -3.98267,0.23485 0.19028,2.31108 0.65574,2.87771 0.65574,2.87771 0,0 -1.05436,-0.93696 -2.0419,0.63347 -0.98753,1.57042 1.14952,2.09249 -1.16758,4.4704 -2.3171,2.37792 -6.68635,0.17825 -6.74896,5.06957 -0.0626,4.89132 -1.82514,11.17903 -3.27815,12.18284 -1.453,1.00379 -2.04191,0.63346 -2.12079,2.50135 -0.0789,1.86789 -1.08869,2.60252 -1.08869,2.60252 0,0 -1.615,-2.65912 -1.79504,0.24087 -0.18004,2.89998 -2.17317,12.60374 -5.00631,14.93107 -2.83316,2.32735 -2.9283,1.17181 -4.01699,3.77432 -1.0887,2.60253 0.38658,2.43452 -1.58247,3.38774 -1.96905,0.95321 -3.07401,0.53231 -3.22576,2.08045 -0.15174,1.54815 0.63348,2.04192 -1.13927,3.11857 -1.77275,1.07666 -1.69387,-0.79123 -2.14307,1.66557 -0.44921,2.4568 -5.21889,11.78421 -5.93727,13.79781 -0.71836,2.01362 -1.26271,3.31488 -2.64286,4.63842 -1.38014,1.32354 -2.23821,0.51003 -2.68742,2.96684 -0.4492,2.45679 -0.0566,2.70367 -1.70592,3.58403 -1.64929,0.88035 -1.86788,-0.0789 -2.09249,1.14952 -0.2246,1.22839 1.39039,3.88752 -1.68362,4.41982 -3.07401,0.53231 -4.76185,-2.44655 -5.04306,1.48553 -0.28121,3.93208 0.13368,5.01476 -1.71194,5.77167 -1.8456,0.75691 -2.20991,-0.84181 -2.53567,1.41869 -0.32577,2.26049 -0.23063,3.41603 -2.69344,5.15445 -2.46283,1.73843 -0.41489,-1.08267 -3.70326,5.8891 -3.28838,6.97176 -4.25966,11.56563 -7.60885,13.84238 -3.34919,2.27675 -4.62216,0.38057 -3.69724,3.70146 0.92492,3.32088 1.14349,4.28012 -1.29704,6.85434 -2.44054,2.57423 -1.03811,2.08647 -2.64286,4.63843 -1.60475,2.55194 -2.55796,0.58287 -3.10833,4.07178 -0.55037,3.48889 0.0385,3.85921 -1.26874,5.50251 -1.30729,1.64328 -5.40496,16.87182 -4.74318,17.56189 0.66176,0.69007 0.88034,1.64931 0.97549,2.80485 0.0951,1.15554 1.34582,2.21593 1.34582,2.21593 0,0 0.28722,-6.11971 1.44878,-8.40249 1.16157,-2.28278 1.96304,1.23443 2.66514,-3.80262 0.70212,-5.03704 0.84784,-4.39755 2.69947,-7.3421 1.85163,-2.94455 -0.66177,-0.69007 1.19588,-5.82225 1.85766,-5.13218 0.70212,-5.03704 2.57603,-7.14579 1.87391,-2.10875 2.16535,-0.82978 2.98489,-3.87549 0.81953,-3.0457 -0.51004,-2.23822 1.04413,-4.2741 1.55416,-2.0359 2.63082,-0.26315 3.10833,-4.07179 0.47751,-3.80863 2.80063,-8.3742 5.19661,-12.62 2.39598,-4.24581 4.64442,0.45523 5.0268,-4.50895 0.38236,-4.96418 0.012,-4.37528 2.59831,-6.31 2.58626,-1.93473 2.09249,-1.14952 2.76027,-2.64709 0.6678,-1.49756 -0.67802,-3.7135 1.80708,-4.61613 2.4851,-0.90263 5.06534,-0.64974 5.80598,-1.82755 0.74066,-1.17782 0.40466,-4.12838 2.30085,-5.40134 1.89618,-1.27297 4.21329,-3.65087 4.95394,-4.82869 0.74065,-1.17783 4.31625,-14.26931 7.25056,-17.62875 2.93431,-3.35943 4.65648,-3.92005 5.32427,-5.4176 0.66778,-1.49757 -1.12724,-1.25671 1.77876,-3.2643 2.90601,-2.00759 2.70369,0.0566 3.59608,-2.66937 0.8924,-2.72595 2.13284,-6.87661 4.18077,-9.69773 2.04794,-2.8211 0.69609,-2.8494 2.54772,-5.79395 1.85163,-2.94454 1.23442,-1.96303 4.88108,-5.14844 3.64666,-3.1854 2.19365,-2.18162 3.41182,-7.16808 1.21816,-4.98646 0.73041,-6.38888 2.32914,-6.75318 1.59872,-0.36431 1.27898,-0.29144 1.58246,-3.38773 0.30349,-3.0963 1.87993,-4.2964 1.87993,-4.2964 0,0 8.95286,-2.04011 8.5723,-6.66226 -0.38055,-4.62215 -1.24465,-3.24803 0.57867,-4.84074 1.82333,-1.5927 2.80485,-0.97548 3.55152,-4.34095 0.74667,-3.36544 -2.00759,-2.906 1.36388,-4.34697 3.37148,-1.44096 1.1718,2.92829 5.1948,-3.03366 4.02301,-5.96196 3.72554,-5.0533 4.34276,-6.03483 0.6172,-0.98151 -0.13368,-5.01475 -0.13368,-5.01475 z"
       style="fill:#80ff80;fill-rule:evenodd;stroke:none;stroke-width:1px;stroke-linecap:butt;stroke-linejoin:miter;stroke-opacity:1" />
    <path
       style="fill:#80ff80;fill-rule:evenodd;stroke:none;stroke-width:1px;stroke-linecap:butt;stroke-linejoin:miter;stroke-opacity:1"
       d="m 790.61925,616.40933 c 0,0 0.0446,1.67158 -0.12947,2.38395 -0.17403,0.71234 -5.53683,2.27073 -3.89355,3.57801 1.64329,1.30727 3.14085,1.97507 2.25447,2.5134 -0.88636,0.53832 -2.72595,-0.8924 -2.41222,1.22237 0.31371,2.11478 1.09892,2.60855 0.48171,3.59006 -0.6172,0.98151 -2.07021,1.98532 -2.07021,1.98532 l 0.21257,3.14687 c 0,0 -1.30729,1.64328 -2.19366,2.18161 -0.88638,0.53833 -1.94074,-0.39862 -1.30728,1.64329 0.63347,2.04191 3.06799,1.65532 0.70634,2.36166 -2.36167,0.70633 -3.78035,-1.82936 -3.78638,0.35828 -0.006,2.18764 3.67919,2.86145 1.51384,3.69121 -2.16536,0.82978 -2.87771,0.65576 -2.87771,0.65576 0,0 1.30125,0.54434 0.31372,2.11477 -0.98754,1.57043 -2.38394,-0.12946 -3.52321,2.98911 -1.13928,3.11857 2.7362,6.10346 -1.64509,8.27906 -4.38129,2.17559 -9.28466,6.48824 -9.55984,8.23268 -0.27518,1.74445 0.31373,2.11478 -1.33558,2.99513 -1.64931,0.88036 -1.87392,2.10875 -1.87392,2.10875 0,0 3.0963,0.30349 0.56062,1.72217 -2.53568,1.41868 -10.4179,7.41918 -11.28802,10.98094 -0.87012,3.56175 0.21255,3.14686 -1.66135,5.25563 -1.87391,2.10875 -2.36166,0.70632 -2.36768,2.89396 -0.006,2.18764 0.85205,3.00114 -0.47751,3.80864 -1.32957,0.80749 -2.11477,0.31373 -2.3171,2.37791 -0.20232,2.06419 1.44698,1.18384 -0.57265,2.65311 -2.01963,1.46926 -8.35973,9.80913 -9.86331,11.32898 -1.50359,1.51985 -2.44055,2.57421 -3.03548,4.39153 -0.59493,1.81731 0.51003,2.23821 -1.5096,3.70748 -2.01963,1.46927 -2.41224,1.22238 -2.49112,3.09027 -0.0789,1.86789 0.88035,1.64931 -0.12946,2.38393 -1.00982,0.73463 -4.1061,0.43115 -3.25406,3.43229 0.85206,3.00116 4.26809,3.23178 0.84604,5.18879 -3.42206,1.95701 -4.5776,2.05216 -4.46018,4.04349 0.11742,1.99133 1.71615,1.62703 -0.18004,2.89998 -1.89619,1.27296 -2.97887,1.68785 -3.47865,4.66069 -0.49979,2.97285 1.15553,-0.0951 -3.70327,5.88911 -4.8588,5.98423 -8.57831,8.8499 -9.17926,12.85483 -0.60096,4.00495 1.65953,4.33071 -1.73422,4.93589 -3.39375,0.60516 -4.35298,0.82374 -5.61571,4.13862 -1.26272,3.31486 -1.43072,1.83959 -3.03546,4.39153 -1.60475,2.55194 0.58289,2.55795 -2.32312,4.56555 -2.906,2.00759 -3.49492,1.63726 -4.40959,3.52744 -0.91468,1.89016 -12.86447,12.18103 -13.77313,11.88357 -0.90865,-0.29748 -1.86789,-0.0789 -2.95057,0.336 -1.08267,0.41488 -2.58024,-0.2529 -2.58024,-0.2529 0,0 5.39111,-2.91023 6.94527,-4.94613 1.55417,-2.03588 -1.96302,-1.23441 2.27254,-4.04949 4.23557,-2.8151 3.59608,-2.66936 5.44771,-5.61392 1.85163,-2.94455 0.90866,0.29747 4.72934,-3.6003 3.82068,-3.89775 4.23557,-2.81507 5.32426,-5.41761 1.0887,-2.60251 -0.19028,-2.31106 2.19969,-4.36924 2.38995,-2.05816 2.23821,-0.51003 3.39977,-2.7928 1.16156,-2.28278 -0.90264,-2.48511 2.32312,-4.56555 3.22575,-2.08046 6.33408,-6.15224 9.12266,-10.15117 2.78859,-3.99892 -2.42247,-3.98868 1.88596,-6.48402 4.30842,-2.49534 3.93809,-1.90643 4.56133,-5.07558 0.62324,-3.16915 0.12947,-2.38394 1.18986,-3.63462 1.06039,-1.25068 3.64063,-0.99777 3.3775,-3.6286 -0.26315,-2.63082 -1.60897,-4.84675 -0.86832,-6.02457 0.74065,-1.17782 3.54549,-2.15332 3.87126,-4.41381 0.32577,-2.2605 1.46504,-5.37907 2.20569,-6.55689 0.74066,-1.17782 10.99056,-10.07228 12.74706,-14.17237 1.75648,-4.10008 1.51562,-5.89511 2.57602,-7.14579 1.06039,-1.25068 1.62101,0.47149 2.17137,-3.01741 0.55037,-3.4889 -1.22237,-2.41223 0.84784,-4.39754 2.07021,-1.98532 5.27369,-4.90156 6.92901,-7.96955 1.65533,-3.06799 2.26652,-1.86187 4.11815,-4.80642 1.85163,-2.94455 1.23441,-1.96302 2.52544,-6.62975 1.29102,-4.66671 1.01584,-2.92226 4.98224,-6.18054 3.9664,-3.25826 5.44169,-3.42626 5.07738,-5.02499 -0.3643,-1.59873 -0.29144,-1.27898 2.36768,-2.89397 2.65912,-1.61498 3.05775,-3.55573 3.05775,-3.55573 0,0 -2.04011,-8.95286 2.2906,-10.61242 4.33071,-1.65954 3.46662,-0.28542 4.11213,-2.61878 0.6455,-2.33335 -0.33601,-2.95056 2.37369,-5.08159 2.7097,-2.13104 3.4889,0.55037 3.32692,-3.11256 -0.16198,-3.66292 -3.14687,0.21256 0.48353,-5.99627 3.63039,-6.20884 2.94033,-5.54707 3.55754,-6.52858 0.6172,-0.98152 4.5776,-2.05216 4.5776,-2.05216 z"
       id="path4395"
       inkscape:connector-curvature="0" />
    <path
       sodipodi:nodetypes="ccssc"
       inkscape:connector-curvature="0"
       id="path4397"
       d="m 782.07616,601.11862 c -1.139,35.54543 -94.23628,163.43475 -121.8713,196.28751 19.39409,6.63447 41.04574,-6.3012 55.71599,-29.72916 16.8024,-26.83291 54.849,-93.11823 61.6877,-104.19632 14.32418,-23.20382 20.97979,-47.28624 4.46761,-62.36203 z"
       style="fill:#005100;fill-opacity:0.48453608;fill-rule:evenodd;stroke:none;stroke-width:1px;stroke-linecap:butt;stroke-linejoin:miter;stroke-opacity:1" />
    <g
       id="g4401"
       transform="matrix(1.0742056,-0.37569303,0.37569303,1.0742056,241.48377,655.84076)"
       style="fill:#f4d7ee">
      <path
         style="opacity:1;fill:#f4d7ee;stroke:none"
         d="m 211.62696,271.00922 a 70.205605,67.680222 0 0 1 -70.2056,67.68022 70.205605,67.680222 0 0 1 -70.205608,-67.68022 70.205605,67.680222 0 0 1 70.205608,-67.68023 70.205605,67.680222 0 0 1 70.2056,67.68023 z"
         id="path4403"
         inkscape:connector-curvature="0" />
      <path
         style="fill:#f4d7ee;fill-rule:evenodd;stroke:none;stroke-width:1px;stroke-linecap:butt;stroke-linejoin:miter;stroke-opacity:1"
         d="m 113.25013,332.56906 c 0,0 26.96358,22.49322 26.96358,29.90697 0,7.41377 -4.11875,12.35628 -3.29501,21.41755 0.82376,9.06127 2.47126,12.35627 3.29501,18.12252 0.82374,5.76627 1.6475,8.23753 1.6475,8.23753 0,0 0.82376,-12.35628 -1.6475,-22.24129 -2.47125,-9.88503 0.82374,-13.18003 2.47126,-19.77004 1.6475,-6.59001 1.85344,-9.26721 2.67718,-15.85722 0.82376,-6.59001 23.49603,-18.94081 23.49603,-18.94081 -3.25057,-8.39229 -52.55221,-9.71943 -55.60805,-0.87521 z"
         id="path4405"
         inkscape:connector-curvature="0"
         sodipodi:nodetypes="cssscssscc" />
    </g>
    <g
       clip-path="url(#clipPath4884)"
       style="fill:#b000dd;fill-opacity:1"
       transform="matrix(1.0742056,-0.37569303,0.37569303,1.0742056,241.61489,655.79491)"
       id="g4407">
      <path
         inkscape:connector-curvature="0"
         id="path4409"
         d="m 211.62696,271.00922 a 70.205605,67.680222 0 0 1 -70.2056,67.68022 70.205605,67.680222 0 0 1 -70.205608,-67.68022 70.205605,67.680222 0 0 1 70.205608,-67.68023 70.205605,67.680222 0 0 1 70.2056,67.68023 z"
         style="opacity:1;fill:#b000dd;fill-opacity:1;stroke:none" />
      <path
         sodipodi:nodetypes="cssscssscc"
         inkscape:connector-curvature="0"
         id="path4411"
         d="m 113.25013,332.56906 c 0,0 26.96358,22.49322 26.96358,29.90697 0,7.41377 -4.11875,12.35628 -3.29501,21.41755 0.82376,9.06127 2.47126,12.35627 3.29501,18.12252 0.82374,5.76627 1.6475,8.23753 1.6475,8.23753 0,0 0.82376,-12.35628 -1.6475,-22.24129 -2.47125,-9.88503 0.82374,-13.18003 2.47126,-19.77004 1.6475,-6.59001 1.85344,-9.26721 2.67718,-15.85722 0.82376,-6.59001 23.49603,-18.94081 23.49603,-18.94081 -3.25057,-8.39229 -52.55221,-9.71943 -55.60805,-0.87521 z"
         style="fill:#b000dd;fill-opacity:1;fill-rule:evenodd;stroke:none;stroke-width:1px;stroke-linecap:butt;stroke-linejoin:miter;stroke-opacity:1" />
    </g>
    <path
       sodipodi:nodetypes="cccccc"
       inkscape:connector-curvature="0"
       id="path4413"
       d="m 447.28294,832.85441 c 15.88947,0.32157 32.88736,-2.14365 47.05728,-16.73623 l -0.52903,0.40906 1.71475,0.0532 c -12.28281,16.16898 -33.2672,17.65212 -51.4657,19.3213 z"
       style="fill:#ccaaff;fill-rule:evenodd;stroke:none;stroke-width:1px;stroke-linecap:butt;stroke-linejoin:miter;stroke-opacity:1" />
    <path
       sodipodi:nodetypes="csccc"
       inkscape:connector-curvature="0"
       id="path4415"
       d="m 456.02811,827.67085 c 0,0 6.43585,0.28377 8.86392,-1.83274 2.42807,-2.11652 3.35981,-3.07604 3.35981,-3.07604 -4.02501,5.75314 -8.28189,6.0071 -14.61276,5.9107 z"
       style="fill:#e5d5ff;fill-rule:evenodd;stroke:none;stroke-width:1px;stroke-linecap:butt;stroke-linejoin:miter;stroke-opacity:1" />
    <path
       sodipodi:nodetypes="cccc"
       inkscape:connector-curvature="0"
       id="path4417"
       d="m 484.05091,817.49896 c -3.03259,5.65599 -7.81522,7.12117 -15.77781,10.04656 7.64084,-1.58261 13.29498,-4.33466 20.3085,-10.68064 z"
       style="fill:#e5d5ff;fill-rule:evenodd;stroke:none;stroke-width:1px;stroke-linecap:butt;stroke-linejoin:miter;stroke-opacity:1" />
    <path
       sodipodi:nodetypes="cccc"
       inkscape:connector-curvature="0"
       id="path4419"
       d="m 479.49138,818.34241 c -3.03513,3.04506 -8.95792,8.72762 -17.17326,9.5443 7.13465,0.74918 15.60149,-5.67834 19.92757,-9.41688 z"
       style="fill:#e5d5ff;fill-rule:evenodd;stroke:none;stroke-width:1px;stroke-linecap:butt;stroke-linejoin:miter;stroke-opacity:1" />
    <path
       sodipodi:nodetypes="cccc"
       inkscape:connector-curvature="0"
       id="path4421"
       d="m 451.65574,830.22083 c 4.493,0.23245 13.8779,0.50526 20.99067,-2.80958 -7.00528,4.51198 -17.34848,4.29157 -23.94131,4.60313 z"
       style="fill:#e3d7f4;fill-rule:evenodd;stroke:none;stroke-width:1px;stroke-linecap:butt;stroke-linejoin:miter;stroke-opacity:1" />
    <path
       sodipodi:nodetypes="cccccc"
       inkscape:connector-curvature="0"
       id="path4423"
       d="m 460.60615,824.74805 c -20.48574,-11.82292 -18.66216,-16.61241 -27.57027,-35.34743 -2.1443,-4.31933 -9.80221,-29.83892 -9.80221,-29.83892 0,0 13.22676,30.18509 16.11007,34.28624 10.59739,18.11639 17.14669,19.52571 29.06807,27.85333 -1.02181,4.06297 -4.21798,3.93242 -7.80566,3.04678 z"
       style="fill:#5aa02c;fill-rule:evenodd;stroke:none;stroke-width:1px;stroke-linecap:butt;stroke-linejoin:miter;stroke-opacity:1" />
    <path
       style="fill:#4f8c27;fill-opacity:1;fill-rule:evenodd;stroke:none;stroke-width:1px;stroke-linecap:butt;stroke-linejoin:miter;stroke-opacity:1"
       d="m 478.7127,819.04912 c 8.65178,-22.01349 4.24065,-24.62246 -0.4695,-44.82566 -1.01511,-4.71425 -10.93142,-29.444 -10.93142,-29.444 0,0 8.46908,31.84905 8.77028,36.85326 3.00354,20.77226 -1.09941,29.07541 -5.37248,39.89859 3.33131,2.5405 5.74942,0.44641 8.00312,-2.48219 z"
       id="path4425"
       inkscape:connector-curvature="0"
       sodipodi:nodetypes="cccccc" />
    <path
       sodipodi:nodetypes="cccccc"
       inkscape:connector-curvature="0"
       id="path4427"
       d="m 465.00886,822.1341 c -10.41848,-17.44442 -13.14046,-15.54635 -18.46007,-35.5977 -1.31543,-4.63943 -6.31834,-35.33884 -6.31834,-35.33884 0,0 12.46857,29.21534 14.5505,33.77587 7.0937,19.75316 9.6084,28.04466 18.46006,35.59771 -1.74989,3.80652 -4.86785,3.09179 -8.23215,1.56296 z"
       style="fill:#519028;fill-opacity:1;fill-rule:evenodd;stroke:none;stroke-width:1px;stroke-linecap:butt;stroke-linejoin:miter;stroke-opacity:1" />
    <path
       style="fill:#5aa02c;fill-rule:evenodd;stroke:none;stroke-width:1px;stroke-linecap:butt;stroke-linejoin:miter;stroke-opacity:1"
       d="m 474.13692,818.94164 c -2.72465,-20.13527 0.58698,-20.34739 -7.74988,-39.34348 -1.8628,-4.448 -17.0837,-31.57377 -17.0837,-31.57377 0,0 8.45761,30.61813 9.67182,35.48215 6.76363,19.8686 9.96472,27.92004 7.7499,39.34348 3.74086,1.88619 5.73373,-0.61601 7.41186,-3.90838 z"
       id="path4429"
       inkscape:connector-curvature="0"
       sodipodi:nodetypes="cccccc" />
    <path
       sodipodi:nodetypes="cscsccsccscsccscccscccscccscc"
       inkscape:connector-curvature="0"
       id="path4431"
       d="m 476.46213,729.50101 c 3.55089,-1.09869 8.05539,-0.83017 9.56661,1.0217 1.51132,1.85201 -2.87432,4.79623 -2.87432,4.79623 0,0 4.21828,-1.29586 6.15718,0.33002 1.93892,1.62586 3.86647,5.75327 0.63946,6.05698 -3.22734,0.30362 -5.94342,-0.44329 -5.94342,-0.44329 0,0 9.93092,3.01284 7.81331,5.53694 -2.11761,2.52415 -6.89353,3.33511 -8.80643,1.85147 -1.91285,-1.48359 0.18215,0.99545 0.18215,0.99545 0,0 5.181,3.96605 2.82923,5.21027 -2.35177,1.24422 -7.54411,-0.22023 -7.54411,-0.22023 0,0 9.7839,6.0542 6.20139,8.26151 -3.58258,2.2073 -6.99202,1.5154 -8.56098,0.62979 -4.16273,3.23854 -2.47387,-0.21113 -3.7013,-1.00522 0,0 -7.94,-1.10271 -7.42303,-3.4038 0.51691,-2.30119 2.99881,-2.83432 2.99881,-2.83432 0,0 -7.00668,-1.12822 -5.31673,-3.42628 1.69004,-2.2979 4.14589,-2.97328 4.14589,-2.97328 0,0 -9.69112,-2.98368 -5.97847,-4.47994 3.71258,-1.49624 6.11074,-1.20524 6.11074,-1.20524 0,0 -8.40263,-4.91314 -4.93549,-5.18772 3.46719,-0.27454 5.4638,0.38505 5.4638,0.38505 0,0 -6.67756,-3.17427 -3.41858,-4.58648 3.25906,-1.4122 5.84498,-1.37653 5.84498,-1.37653 0,0 -5.88006,-2.66029 -3.10073,-4.13075 2.77941,-1.47042 4.64024,-0.27126 4.64024,-0.27126 0,0 -5.16448,-6.22803 1.03959,-5.85317 6.93792,0.41902 3.97055,6.32209 3.97055,6.32209 z"
       style="fill:#008000;fill-opacity:1;fill-rule:evenodd;stroke:none;stroke-width:1px;stroke-linecap:butt;stroke-linejoin:miter;stroke-opacity:1" />
    <path
       sodipodi:nodetypes="cscsccsccscsccscccscccscccscc"
       inkscape:connector-curvature="0"
       id="path4433"
       d="m 421.14121,707.14003 c -3.86191,-0.0743 -7.77123,2.29833 -8.03378,5.70894 -0.26257,3.41085 5.45228,5.85819 5.45228,5.85819 0,0 -4.58221,-0.0744 -5.36568,3.18821 -0.78349,3.26263 -0.0673,10.23275 3.02872,9.26919 3.09625,-0.96382 5.10514,-3.26261 5.10514,-3.26261 0,0 -7.17735,8.82356 -3.7615,11.64142 3.41586,2.81793 8.21311,1.92834 9.05778,-1.11182 0.84464,-3.04007 0.42815,1.55714 0.42815,1.55714 0,0 -2.3189,8.15651 0.54643,8.97232 2.86532,0.8158 6.68393,-3.63313 6.68393,-3.63313 0,0 -5.23368,13.2727 -0.68312,14.97843 4.55061,1.70565 7.21861,-0.81539 8.10864,-2.81729 5.68872,2.98183 8.53943,-3.66918 2.7451,-3.11393 0,0 6.51612,-5.11629 4.67902,-8.30467 -1.8371,-3.18859 -4.39659,-2.89206 -4.39659,-2.89206 0,0 5.65781,-4.74509 2.76289,-7.41492 -2.89492,-2.66955 -5.51556,-2.59554 -5.51556,-2.59554 0,0 6.97807,-8.67523 2.73332,-9.26866 -4.24468,-0.59343 -6.23781,0.88945 -6.23781,0.88945 0,0 4.66527,-10.97396 1.36969,-9.86194 -3.29557,1.11214 -4.7065,2.96601 -4.7065,2.96601 0,0 4.14225,-7.63732 0.35736,-8.30485 -3.78493,-0.66748 -6.09972,0.51876 -6.09972,0.51876 0,0 3.72784,-6.52504 0.34159,-7.48922 -3.38631,-0.9641 -4.35332,1.63108 -4.35332,1.63108 0,0 0.95717,-11.50619 -4.42417,-8.23087 -6.01795,3.66247 0.1774,11.12251 0.1774,11.12251 z"
       style="fill:#007900;fill-opacity:1;fill-rule:evenodd;stroke:none;stroke-width:1px;stroke-linecap:butt;stroke-linejoin:miter;stroke-opacity:1" />
    <path
       style="fill:#008900;fill-opacity:1;fill-rule:evenodd;stroke:none;stroke-width:1px;stroke-linecap:butt;stroke-linejoin:miter;stroke-opacity:1"
       d="m 441.95827,723.9095 c -3.29644,-0.36537 -6.9466,1.16582 -7.6078,3.79362 -0.66124,2.62798 3.91772,4.98387 3.91772,4.98387 0,0 -3.91303,-0.42283 -5.00123,2.04855 -1.08822,2.47138 -1.36704,7.94149 1.40655,7.43982 2.77383,-0.50187 4.7877,-2.12709 4.7877,-2.12709 0,0 -7.27322,6.28069 -4.70972,8.74118 2.56351,2.46055 6.78398,2.15184 7.8961,-0.14188 1.11207,-2.29367 0.16725,1.24339 0.16725,1.24339 0,0 -3.02884,6.14969 -0.68042,7.01152 2.34845,0.86182 6.18664,-2.28906 6.18664,-2.28906 0,0 -6.17871,9.89077 -2.50153,11.57797 3.67723,1.68713 6.28376,-0.0582 7.30183,-1.54198 4.48819,2.76889 7.77962,-2.16925 2.74841,-2.19963 0,0 6.23277,-3.45427 5.06815,-6.07675 -1.1646,-2.62263 -3.39357,-2.59624 -3.39357,-2.59624 0,0 5.45053,-3.23436 3.31402,-5.5384 -2.13655,-2.30381 -4.38939,-2.4551 -4.38939,-2.4551 0,0 7.08364,-6.18137 3.52592,-6.98038 -3.55767,-0.79901 -5.45364,0.19384 -5.45364,0.19384 0,0 5.39797,-8.15084 2.43453,-7.54977 -2.96345,0.60117 -4.40851,1.9285 -4.40851,1.9285 0,0 4.52326,-5.60123 1.36868,-6.42116 -3.15464,-0.81988 -5.28799,-0.0831 -5.28799,-0.0831 0,0 4.02617,-4.77043 1.25079,-5.78898 -2.77543,-1.01848 -3.93534,0.91991 -3.93534,0.91991 0,0 2.2918,-8.85956 -2.73397,-6.74461 -5.62029,2.36491 -1.27147,8.65198 -1.27147,8.65198 z"
       id="path4435"
       inkscape:connector-curvature="0"
       sodipodi:nodetypes="cscsccsccscsccscccscccscccscc" />
    <path
       style="fill:#008e00;fill-opacity:1;fill-rule:evenodd;stroke:none;stroke-width:1px;stroke-linecap:butt;stroke-linejoin:miter;stroke-opacity:1"
       d="m 407.12383,740.93983 c -4.17572,1.03109 -8.48119,3.98443 -8.87461,6.7191 -0.39344,2.73487 5.71081,3.03247 5.71081,3.03247 0,0 -4.95498,1.23412 -5.90722,4.00025 -0.95226,2.76614 -0.40091,8.00159 2.97945,6.37687 3.38065,-1.62502 5.62773,-3.98484 5.62773,-3.98484 0,0 -8.04793,8.90732 -4.44278,10.14227 3.60517,1.23503 8.82371,-0.81177 9.83503,-3.4216 1.01128,-2.60976 0.41328,1.09401 0.41328,1.09401 0,0 -2.77032,7.01686 0.30343,6.84525 3.07377,-0.1716 7.34767,-4.71909 7.34767,-4.71909 0,0 -6.08778,11.83002 -1.21936,11.8774 4.86848,0.0473 7.83578,-2.67174 8.86287,-4.48442 0.96982,0.92072 1.82799,-2.72675 3.06973,-3.20332 0,0 7.21367,-5.82877 5.3284,-7.79799 -1.88524,-1.96937 -4.6638,-1.01629 -4.6638,-1.01629 0,0 6.2732,-5.29717 3.22689,-6.56355 -3.04635,-1.26617 -5.88392,-0.46941 -5.88392,-0.46941 0,0 7.82759,-8.7354 3.25433,-8.00131 -4.57317,0.73404 -6.77705,2.45288 -6.77705,2.45288 0,0 5.39914,-9.87646 1.79808,-8.07961 -3.60107,1.79692 -5.18695,3.64103 -5.18695,3.64103 0,0 4.7263,-7.12602 0.65294,-6.57943 -4.07342,0.54664 -6.61577,2.12479 -6.61577,2.12479 0,0 4.24232,-6.14147 0.60972,-5.93869 -3.63266,0.20284 -4.76205,2.50003 -4.76205,2.50003 0,0 1.40452,-9.24596 -4.52245,-5.17334 -6.62811,4.55417 -0.16471,8.62671 -0.16471,8.62671 z"
       id="path4437"
       inkscape:connector-curvature="0"
       sodipodi:nodetypes="cscsccsccscsccscccscccscccscc" />
    <path
       inkscape:connector-curvature="0"
       id="path4439"
       d="m 418.13202,881.5206 c 0,0 10.97784,0.64127 22.05601,-0.99289 11.07817,-1.63415 33.29551,-9.85253 33.29551,-9.85253 0,0 -6.3484,4.90869 -16.3292,8.39938 -9.98079,3.49068 -33.89333,5.58095 -37.36644,5.89951 -3.47311,0.31855 -3.47311,0.31855 -3.47311,0.31855 z"
       style="fill:#9900c0;fill-opacity:1;fill-rule:evenodd;stroke:none;stroke-width:1px;stroke-linecap:butt;stroke-linejoin:miter;stroke-opacity:1" />
    <path
       sodipodi:nodetypes="cscccc"
       inkscape:connector-curvature="0"
       id="path4441"
       d="m 515.25193,818.42961 c 0,0 -3.55483,8.41232 -12.57788,13.3603 -9.02306,4.94799 -28.06622,10.71202 -28.06622,10.71202 12.81257,-1.67397 23.7027,-6.61105 34.71354,-13.48492 3.45345,-1.65588 9.62294,-9.63844 9.62294,-9.63844 z"
       style="fill:#8f00b3;fill-opacity:1;fill-rule:evenodd;stroke:none;stroke-width:1px;stroke-linecap:butt;stroke-linejoin:miter;stroke-opacity:1" />
    <path
       sodipodi:nodetypes="cccc"
       inkscape:connector-curvature="0"
       id="path4443"
       d="m 556.64964,843.04486 c -5.8329,5.17103 -10.05985,8.30713 -20.04918,12.72484 9.94532,-1.80317 14.1695,-5.26239 22.05809,-9.95493 0.32407,-0.71776 -0.74485,-1.72365 -2.00891,-2.76991 z"
       style="fill:#8f00b3;fill-opacity:1;fill-rule:evenodd;stroke:none;stroke-width:1px;stroke-linecap:butt;stroke-linejoin:miter;stroke-opacity:1" />
    <path
       style="fill:#ddcdcd;fill-opacity:1;fill-rule:evenodd;stroke:none;stroke-width:1px;stroke-linecap:butt;stroke-linejoin:miter;stroke-opacity:1"
       d="m 574.54979,885.61109 c 0,0 -6.80822,9.07491 -15.83127,14.0229 -9.02306,4.94799 -28.06622,10.71201 -28.06622,10.71201 12.81257,-1.67396 23.7027,-6.61104 34.71354,-13.48491 3.45345,-1.65588 9.46642,-4.1976 9.46642,-4.1976 z"
       id="path4445"
       inkscape:connector-curvature="0"
       sodipodi:nodetypes="cscccc" />
    <path
       sodipodi:nodetypes="csccc"
       inkscape:connector-curvature="0"
       id="path4447"
       d="m 464.52099,965.75575 c 0,0 12.18719,1.32255 22.32726,-0.43159 10.14008,-1.75413 28.62473,-9.11509 28.62473,-9.11509 -15.1858,6.81538 -28.07479,13.22939 -43.74937,12.11943 z"
       style="fill:#d9cece;fill-opacity:1;fill-rule:evenodd;stroke:none;stroke-width:1px;stroke-linecap:butt;stroke-linejoin:miter;stroke-opacity:1" />
    <path
       style="fill:#dbcfcf;fill-opacity:1;fill-rule:evenodd;stroke:none;stroke-width:1px;stroke-linecap:butt;stroke-linejoin:miter;stroke-opacity:1"
       d="m 558.78403,938.80794 c -9.91272,10.68104 -17.6157,13.9277 -31.77061,18.33444 8.5647,-1.11899 15.84433,-4.41923 23.20463,-9.01414 2.3085,-1.1069 3.13602,-2.2801 3.13602,-2.2801 z"
       id="path4449"
       inkscape:connector-curvature="0"
       sodipodi:nodetypes="ccccc" />
    <path
       sodipodi:nodetypes="ccsscccc"
       inkscape:connector-curvature="0"
       id="path4453"
       d="m 858.48571,829.34175 c -5.96966,64.54543 -34.93333,105.24117 -79.63621,147.42628 -25.99297,22.75642 -59.30865,48.39487 -91.51391,34.71377 -36.98969,-15.71357 -36.8668,-46.84628 -23.90254,-69.98964 21.13907,-37.73673 41.98898,-47.61106 76.35675,-68.96344 24.06378,-14.54026 35.55767,-37.86503 60.12431,-56.13096 6.53225,-4.58685 24.57178,-11.37344 27.93606,-12.30152 21.54916,0.5668 24.97439,10.14534 30.63554,25.24551 z"
       style="fill:#21112e;fill-opacity:1;fill-rule:evenodd;stroke:none;stroke-width:1px;stroke-linecap:butt;stroke-linejoin:miter;stroke-opacity:1" />
    <path
       sodipodi:nodetypes="cscccsscc"
       inkscape:connector-curvature="0"
       id="path4455"
       d="m 813.09464,847.01543 c 0,0 -33.25645,51.79503 -40.20185,61.21754 -14.71618,19.96481 -56.41357,70.46543 -83.37534,76.33008 -28.7068,2.86594 -20.11206,-27.96084 -13.38132,-42.95488 14.3115,-26.35075 42.38978,-35.03982 63.80985,-47.81841 14.47892,-8.5892 26.54394,-17.34795 35.04835,-27.90931 8.50441,-10.56137 19.29778,-27.46312 26.46362,-32.78173 7.16583,-5.31861 11.33326,-9.39235 11.33326,-9.39235 z"
       style="fill:#3b1137;fill-opacity:0.64948449;fill-rule:evenodd;stroke:none;stroke-width:1px;stroke-linecap:butt;stroke-linejoin:miter;stroke-opacity:1" />
    <path
       sodipodi:nodetypes="ccccc"
       inkscape:connector-curvature="0"
       id="path4457"
       d="m 811.75159,842.65168 c -22.58004,51.82007 -77.18766,102.82067 -118.48614,127.23165 -13.66748,-1.25625 -17.19252,-13.96184 -4.93937,-30.52396 46.42083,-31.63818 93.44193,-69.11676 121.02946,-110.94567 z"
       style="fill:#bcb2c9;fill-opacity:0.65979381;fill-rule:evenodd;stroke:none;stroke-width:1px;stroke-linecap:butt;stroke-linejoin:miter;stroke-opacity:1" />
    <path
       sodipodi:nodetypes="cccscc"
       inkscape:connector-curvature="0"
       id="path4459"
       d="m 811.76387,842.82235 c -7.95903,16.14824 -17.07595,32.15267 -28.59083,46.14405 l -3.18694,-24.04527 c 0,0 6.89031,-7.95784 12.55025,-13.94015 5.80885,-6.13972 10.63052,-13.20171 10.63052,-13.20171 z"
       style="fill:#ebe9ee;fill-opacity:0.41237117;fill-rule:evenodd;stroke:none;stroke-width:1px;stroke-linecap:butt;stroke-linejoin:miter;stroke-opacity:1" />
    <path
       sodipodi:nodetypes="cccccssccsccccscsccccc"
       inkscape:connector-curvature="0"
       id="path4461"
       d="m 848.47826,803.93171 -1.2009,-11.18214 c -1.69439,1.71171 -2.11467,-1.92818 -7.60757,-0.82545 l -5.31415,2.44067 -3.90951,3.10282 c 0,0 -3.72037,0.53365 -6.40197,1.41265 -2.68162,0.879 -10.4405,0.18083 -17.65001,6.46933 -7.81747,6.81879 -8.48677,13.42097 -25.38611,8.09329 l 5.91002,16.5686 c 0,0 9.6407,6.52738 12.95591,4.91663 3.3152,-1.61076 8.62935,-4.05143 8.62935,-4.05143 l -10.60152,10.02594 c 0.62703,11.69945 27.86107,-1.65711 24.11194,0.46352 -1.2181,2.14619 12.00156,16.03833 12.00156,16.03833 0,0 -3.43106,-9.3479 -1.72035,-14.91892 1.71169,-5.57421 6.81938,-12.0634 6.81938,-12.0634 0,0 0.11507,18.35164 2.27019,21.71063 7.50138,11.69168 15.0608,14.5154 27.09579,10.7005 l -7.89151,-5.52383 14.51311,-2.05735 c -6.03493,0.83401 -19.10668,-9.48767 -14.82268,-20.58814 1.77582,-14.74887 4.13911,-22.0429 -11.80097,-30.73225 z"
       style="fill:#92b147;fill-opacity:1;fill-rule:evenodd;stroke:none;stroke-width:1px;stroke-linecap:butt;stroke-linejoin:miter;stroke-opacity:1" />
  </g>
</svg>
